<svg id="Capa_2" data-name="Capa 2" xmlns="http://www.w3.org/2000/svg" viewBox="0 0 521.78 718.95"><defs><style>.cls-1{fill:none;stroke:#1d1d1b;stroke-miterlimit:10;}</style></defs><title>PLANTAS N19-Model</title><polygon class="cls-1" points="520.09 313.51 520.09 572.17 261.26 572.17 261.26 331.26 349.1 331.26 349.1 313.35 520.09 313.51"/><polygon class="cls-1" points="521.28 0.57 521.28 313.35 349.1 313.35 349.1 294.26 261.02 294.26 261.02 0.5 521.28 0.57"/><polygon class="cls-1" points="0.5 0.5 0.5 237.62 109.26 237.62 109.26 294.38 261.02 294.38 261.02 0.5 0.5 0.5"/><polygon class="cls-1" points="1.26 571.76 260.57 571.76 260.57 331.82 108.76 331.82 108.76 387.26 1.26 387.26 1.26 571.76"/><polygon class="cls-1" points="1.87 718.45 520.09 718.45 520.09 0.57 0.5 0.57 1.87 718.45"/></svg>