<svg id="Capa_2" data-name="Capa 2" xmlns="http://www.w3.org/2000/svg" viewBox="0 0 559.79 617.82"><defs><style>.cls-1,.cls-2,.cls-3{fill:none;stroke:#000;}.cls-1,.cls-3{stroke-linecap:round;stroke-linejoin:round;}.cls-1{stroke-width:0.48px;}.cls-2{stroke-miterlimit:10;}.cls-2,.cls-3{stroke-width:1.5px;}</style></defs><title>PLANTAS NIVEL2 EPS-Model</title><rect class="cls-1" x="0.24" y="0.24" width="559.31" height="617.34"/><path class="cls-2" d="M345.41,322.76s50.19-.09,50.28,0,0,18,0,18H581.13V89.44H346.61Z" transform="translate(-24.26 -85.76)"/><polygon class="cls-2" points="321.15 237 104.07 237 104.07 159.24 156.15 159.24 156.15 4.92 319.95 4.92 321.15 237"/><polygon class="cls-3" points="104.19 271.8 312.99 271.8 312.99 505.56 4.11 505.56 4.11 325.32 104.25 325.32 104.19 271.8"/><polygon class="cls-3" points="371.43 271.8 371.43 255 556.87 255 556.87 506.52 312.99 506.52 312.99 271.8 371.43 271.8"/></svg>