<svg id="Capa_2" data-name="Capa 2" xmlns="http://www.w3.org/2000/svg" viewBox="0 0 1769.8 1255.93"><defs><style>.cls-1{fill:none;stroke:#000;stroke-miterlimit:10;}</style></defs><title>Bellanca nivel 4 eps</title><polygon class="cls-1" points="2.38 942.95 384.5 942.95 384.5 987.11 500.18 987.11 500.18 475.91 184.82 475.91 184.82 569.99 0.76 569.99 2.38 942.95"/><polygon class="cls-1" points="500.18 411.83 500.18 4.02 2.72 4.02 2.72 317.87 185.51 317.87 185.51 411.83 500.18 411.83"/><polygon class="cls-1" points="867.98 412.19 500.18 411.83 500.18 4.02 867.98 4.31 867.98 412.19"/><polygon class="cls-1" points="1231.34 411.83 867.98 412.19 867.98 4.31 1231.34 4.31 1231.34 411.83"/><polygon class="cls-1" points="1608.98 412.19 1231.34 411.83 1231.34 4.31 1766.66 4.31 1766.66 317.87 1609.88 317.87 1608.98 412.19"/><polygon class="cls-1" points="1231.34 475.67 1231.34 987.35 1508.71 987.35 1767.17 661.81 1767.17 569.99 1609.3 569.99 1610.32 475.67 1231.34 475.67"/><polygon class="cls-1" points="867.98 475.67 867.98 987.83 1231.34 987.58 1231.34 475.67 867.98 475.67"/><polygon class="cls-1" points="500.18 475.91 500.18 987.11 867.98 987.83 867.98 475.67 500.18 475.91"/><polyline class="cls-1" points="4.82 1255.43 0.5 0.5 1769.3 0.5 1769.3 1255.43 4.82 1255.43"/></svg>