<svg id="Capa_2" data-name="Capa 2" xmlns="http://www.w3.org/2000/svg" viewBox="0 0 1769.8 1297.6"><defs><style>.cls-1{fill:none;stroke:#000;stroke-miterlimit:10;}</style></defs><title>Bellanca nivel 4 eps</title><polygon class="cls-1" points="2.38 984.62 384.5 984.62 384.5 1028.78 500.18 1028.78 500.18 517.58 184.82 517.58 184.82 611.66 0.76 611.66 2.38 984.62"/><polygon class="cls-1" points="500.18 453.5 500.18 45.69 2.72 45.69 2.72 359.54 185.51 359.54 185.51 453.5 500.18 453.5"/><polygon class="cls-1" points="867.98 453.86 500.18 453.5 500.18 45.69 867.98 45.98 867.98 453.86"/><polygon class="cls-1" points="1231.34 453.5 867.98 453.86 867.98 45.98 1231.34 45.98 1231.34 453.5"/><polygon class="cls-1" points="1608.98 453.86 1231.34 453.5 1231.34 45.98 1766.66 45.98 1766.66 359.54 1609.88 359.54 1608.98 453.86"/><polygon class="cls-1" points="1231.34 517.34 1231.34 1029.02 1508.71 1029.02 1767.17 703.48 1767.17 611.66 1609.3 611.66 1610.32 517.34 1231.34 517.34"/><polygon class="cls-1" points="867.98 517.34 867.98 1029.5 1231.34 1029.25 1231.34 517.34 867.98 517.34"/><polygon class="cls-1" points="500.18 517.58 500.18 1028.78 867.98 1029.5 867.98 517.34 500.18 517.58"/><polyline class="cls-1" points="4.82 1297.1 0.5 0.5 1769.3 0.5 1769.3 1297.1 4.82 1297.1"/></svg>