<svg id="Capa_2" data-name="Capa 2" xmlns="http://www.w3.org/2000/svg" viewBox="0 0 1789.15 1192.32"><defs><style>.cls-1,.cls-2{fill:none;stroke:#000;stroke-miterlimit:10;}.cls-1{stroke-width:0.48px;}.cls-2{stroke-width:1.5px;}</style></defs><title>Bellanca nivel 5 eps</title><rect class="cls-1" x="0.24" y="0.24" width="1788.16" height="1191.84"/><polygon class="cls-2" points="284.56 42 430.48 42 430.48 361.92 282.4 361.92 284.56 42"/><rect class="cls-2" x="430.48" y="42" width="149.04" height="319.92"/><rect class="cls-2" x="579.52" y="42" width="145.2" height="318"/><rect class="cls-2" x="724.72" y="42" width="149.64" height="320.28"/><rect class="cls-2" x="874.36" y="42" width="145.2" height="320.28"/><rect class="cls-2" x="1019.56" y="42" width="151.08" height="320.28"/><rect class="cls-2" x="1170.64" y="42" width="143.76" height="320.28"/><rect class="cls-2" x="1314.4" y="42" width="151.2" height="319.92"/><rect class="cls-2" x="1465.6" y="42" width="143.64" height="314.4"/><rect class="cls-2" x="1609.24" y="42" width="179.16" height="314.4"/><rect class="cls-2" x="1358.56" y="424.76" width="191.76" height="292.36"/><rect class="cls-2" x="1211.2" y="424.76" width="147.36" height="292.36"/><rect class="cls-2" x="1063.84" y="424.76" width="147.36" height="292.36"/><rect class="cls-2" x="916.36" y="424.76" width="147.48" height="292.36"/><rect class="cls-2" x="768.88" y="424.76" width="147.48" height="292.36"/><rect class="cls-2" x="621.52" y="424.76" width="147.36" height="292.36"/><rect class="cls-2" x="474.16" y="424.76" width="147.36" height="292.36"/><rect class="cls-2" x="282.4" y="424.76" width="191.76" height="292.36"/><polygon class="cls-2" points="1722.49 780.76 1435.36 780.76 1435.36 1026.36 1528.48 1026.36 1722.49 780.76"/><polygon class="cls-2" points="1435.36 780.76 1435.36 780.76 1435.36 1026.36 1287.88 1026.36 1287.88 780.76 1435.36 780.76"/><rect class="cls-2" x="1140.4" y="780.76" width="147.48" height="245.6"/><rect class="cls-2" x="993.04" y="780.76" width="147.36" height="245.6"/><rect class="cls-2" x="845.68" y="780.76" width="147.36" height="245.6"/><rect class="cls-2" x="698.2" y="780.76" width="147.48" height="245.6"/><rect class="cls-2" x="550.72" y="780.76" width="147.48" height="245.6"/><path class="cls-2" d="M744.24,1086.76H597v245.6H744.24Z" transform="translate(-193.52 -306)"/></svg>