<svg id="Capa_2" data-name="Capa 2" xmlns="http://www.w3.org/2000/svg" viewBox="0 0 522.08 702.2"><defs><style>.cls-1,.cls-2{fill:none;stroke:#000;stroke-linecap:round;stroke-linejoin:round;}.cls-1{stroke-width:0.48px;}.cls-2{stroke-width:1.5px;}</style></defs><title>PLANTAS N13-Model</title><rect class="cls-1" x="0.24" y="0.24" width="521.6" height="701.72"/><polygon class="cls-2" points="262.16 571.46 262.16 278.64 384.44 278.64 384.44 260.28 520.68 260.28 520.68 571.44 262.16 571.46"/><polygon class="cls-2" points="262.16 571.46 262.16 278.64 112.04 278.64 112.04 333.96 2.49 333.96 2.49 571.69 262.16 571.46"/><polygon class="cls-2" points="262.16 1.24 262.16 242.32 385.76 242.32 385.76 259.92 520.68 259.92 520.68 1.24 262.16 1.24"/><polygon class="cls-2" points="262.28 242.32 112.04 242.32 112.04 187 2.41 187 2.41 1.24 262.16 1.24 262.28 242.32"/></svg>