<svg id="Capa_2" data-name="Capa 2" xmlns="http://www.w3.org/2000/svg" viewBox="0 0 462.12 735.12">
	<defs>
		<style>.land{fill:none;stroke:#050505;stroke-linecap:round;stroke-linejoin:round;stroke-width:0.48px;}</style>
	</defs>
	<title>TB_ESTACIONAMIENTO MEZZANINE</title>
	<g>
		<rect class="land" x="0.24" y="0.24" width="461.64" height="734.64"/>
		<polygon id="BEM-01" class="land" points="275.05 70.67 406.21 70.68 406.21 227.68 359.71 227.68 359.84 113.07 348.37 113.07 348.31 102.05 336.03 102.11 336.03 112.14 274.92 112.39 275.05 70.67"/>
		<polygon id="BEM-02" class="land" points="359.4 229.92 406.2 229.92 406.85 341.59 359.83 341.59 359.4 229.92"/>
		<polygon id="BEM-03" class="land" points="359.75 446.88 406.33 446.88 406.25 558.84 359.75 558.51 359.75 446.88"/>
		<rect id="BEM-04" class="land" x="359.75" y="561.34" width="46.58" height="119.83"/>
		<polygon id="BEM-05" class="land" points="188 570.84 188.25 681.6 97.75 681.26 97.75 672.01 88.5 671.95 88.5 570.84 188 570.84"/>
		<polygon id="BEM-06" class="land" points="188.28 445.2 188.25 568.51 97.75 568.8 97.75 558.63 88.5 558.7 88.5 457.07 97.87 457.07 97.87 445.57 188.28 445.2"/>
		<polygon id="BEM-07" class="land" points="188.21 350.3 88.47 350.42 88.47 342.6 97.94 342.6 97.9 330.26 88.47 330.26 88.5 229.92 188.21 229.92 188.21 350.3"/>
		<polygon id="BEM-08" class="land" points="272.66 112.22 211.84 112.29 211.84 102.23 199.34 102.23 199.34 113.26 188.16 113.26 188.21 227.63 97.75 227.7 97.75 216.38 88.47 216.32 88.47 114.7 98.06 114.76 98 102.23 88.47 102.23 88.47 70.64 272.66 70.64 272.66 112.22"/>
	</g>
</svg>