<svg xmlns="http://www.w3.org/2000/svg" viewBox="0 0 502 490">
	<defs>
		<style>
			.cls-1,.cls-5{
				fill:#fff;
			}
			.cls-1,.cls-2,.cls-5{
				stroke:#000;stroke-miterlimit:10;
			}
			.cls-2{
				fill:none;
			}
			.cls-3{
				isolation:isolate;
			}
			.cls-4{
				fill:#b8b8b8;
			}
			.cls-4,.cls-5{
				fill-rule:evenodd;
			}</style>
	</defs>
<!-- <title>Torre Luxury</title>
	<g id="Capa_1_Imagen" data-name="Capa 1 Imagen"> -->
		<rect class="cls-1" id="PB-18" x="446.5" y="0.5" width="55" height="79.5"/>
		<path class="cls-1" id="PB-17" d="M575,138.5A95.85,95.85,0,0,1,599,157l31,.5V78H575Z" transform="translate(-183.5 -77.5)"/>
		<path class="cls-1" id="PB-16" d="M495,140.5a156.09,156.09,0,0,1,80-2V78H521V88.75l-26-.25Z" transform="translate(-183.5 -77.5)"/>
		<path class="cls-1" id="PB-15" d="M442.25,167.25A155.54,155.54,0,0,1,495,140.5v-52H442.25Z" transform="translate(-183.5 -77.5)"/>
		<path class="cls-1" d="M442.25,88.5" transform="translate(-183.5 -77.5)"/>
		<path class="cls-1" id="PB-22" d="M529.33,267.57a57.79,57.79,0,0,0,41.13-1.49v36.58H526.17v-30a5.17,5.17,0,0,0,3.16-5.13Z" transform="translate(-183.5 -77.5)"/>
		<!-- <path class="cls-1" d="M547.67,270.43" transform="translate(-183.5 -77.5)"/> -->
		<rect class="cls-1" id="pb-21" x="387.31" y="188.44" width="36.02" height="70.9"/>
		<rect class="cls-1" id="pb-20" x="423.33" y="188.44" width="35.67" height="70.9"/>
		<rect class="cls-1" id="pb-19" x="459" y="188.44" width="42.5" height="70.9"/>
		<path class="cls-1" id="PB-10" d="M281.5,323.5A389.94,389.94,0,0,0,242.75,411H186.5a357.23,357.23,0,0,1,8.75-87.5Z" transform="translate(-183.5 -77.5)"/>
		<path class="cls-1" d="M233.75,456.75" transform="translate(-183.5 -77.5)"/>
		<path class="cls-1" d="M233.75,456.75" transform="translate(-183.5 -77.5)"/>
		<path class="cls-1" id="PB-9" d="M233.89,458.13c1-8.28,2.39-17,4.18-26.22,1.43-7.33,3-14.3,4.68-20.9H184v47.13Z" transform="translate(-183.5 -77.5)"/>
		<path class="cls-1"  id="PB-8" d="M240.75,481.75A37.41,37.41,0,0,1,234,458.13H184V491h41.72Z" transform="translate(-183.5 -77.5)"/>
		<path class="cls-1" id="PB-7" d="M258.5,499.63a53.23,53.23,0,0,1-11.79-9.86,55.17,55.17,0,0,1-6-8l-15,9.25H184v37.38h58.88Z" transform="translate(-183.5 -77.5)"/>
		<path class="cls-1" id="PB-6" d="M281.25,505.12a36,36,0,0,1-14-1.41,35.49,35.49,0,0,1-8.79-4.09l-15.62,28.75H184V567h97.25Z" transform="translate(-183.5 -77.5)"/>
		<path class="cls-1" id="PB-5" d="M305,499.63a39.33,39.33,0,0,1-10.45,4.22,44.08,44.08,0,0,1-13.3,1.19v62h87.38L368,528.38H319.5Z" transform="translate(-183.5 -77.5)"/>
		<path class="cls-2" id="PB-4" d="M322.25,481.75a45.12,45.12,0,0,1-7.39,10.2,44.32,44.32,0,0,1-9.86,7.68l14.5,28.75H368V490.52l-30.25,0Z" transform="translate(-183.5 -77.5)"/>
		<path class="cls-1" id="PB-2" d="M328.5,457.5H368v-3.37h2.63l-.87-42.75h-56.5a63.71,63.71,0,0,0,5.06,16.19C321.8,435,325,437.79,327,444.79a37.83,37.83,0,0,1,1.39,13.34" transform="translate(-183.5 -77.5)"/>
		<path class="cls-2"  id="PB-1" d="M317.25,336.5a107.95,107.95,0,0,0-3.83,74.88h56.33V373.94H338l.5-37.44Z" transform="translate(-183.5 -77.5)"/>
	<!-- </g>
	<g id="Capa_18" data-name="Capa 18" class="cls-3">
		<g id="Capa_18-2" data-name="Capa 18"> -->
			<polygon class="cls-4" points="232.5 200.5 232.5 201 232.5 201.5 237.5 201.5 237.5 201 237.5 200.5 232.5 200.5"/>
	<!-- 	</g>
	</g>
	<g id="Capa_4" data-name="Capa 4" class="cls-3"> -->
		<path class="cls-5" id="PB-3" d="M328.5,457.5A43.21,43.21,0,0,1,327,470.67a43.94,43.94,0,0,1-4.75,11.08l15.5,8.75,30.25,0v-33Z" transform="translate(-183.5 -77.5)"/>
	<!-- </g>
	<g id="Capa_11" data-name="Capa 11" class="cls-3"> -->
		<path class="cls-5" id="PB-11" d="M304.75,286.25H206a372.05,372.05,0,0,1,45.75-82l75.5,55.5L314.6,273.2Z" transform="translate(-183.5 -77.5)"/>
		<path class="cls-5" id="PB-12" d="M251.75,204.25A409.59,409.59,0,0,1,316,142.5L348.25,241,339,249.25l-11.75,10.5Z" transform="translate(-183.5 -77.5)"/>
		<path class="cls-5" id="PB-13" d="M315.5,142.75a349.86,349.86,0,0,1,67.75-36.25V211.25q-7.56,6.49-15.25,13-10.16,8.6-20.25,17Z" transform="translate(-183.5 -77.5)"/>
		<path class="cls-5" id="PB-14" d="M442.25,89.75A189.61,189.61,0,0,0,415.5,94.8a192.53,192.53,0,0,0-32.25,11.7V211.25l59-44Z" transform="translate(-183.5 -77.5)"/>
<!-- 		
	</g> -->
</svg>