<svg id="Capa_1" data-name="Capa 1" xmlns="http://www.w3.org/2000/svg" viewBox="0 0 618.01 596.95">
	<defs>
		<style>
			.cls-1{fill:#373636;}.cls-2{fill:none;isolation:isolate;}
		</style>
	</defs>
	<title>PLANO LOMASillustrator1</title>
	<path class="cls-1" d="M14,15c-.33,1.93-1.83.66-2.75,1S9.17,15.35,9,17H4V15Z" transform="translate(-4 -10.84)"/>
	<path class="cls-1" d="M411,105.5V95.3l-1.65,2.83a57.87,57.87,0,0,1-7,.83q-84.49.07-169,0h-4.48V65.19c-15.34-.73-209.61-.43-213.84.32-.5,4.57,1.4,8.81,2.36,13.06C18.6,84,19.35,89.65,21,95c1.15,3.73,1.57,7.6,2.71,11.36,1.55,5.08,2.19,10.43,3.29,15.65.77,3.67,1.53,7.34,2.52,11,1.32,4.82,2.39,9.72,3.29,14.59.75,4,1.58,8.11,2.57,12,1.33,5.3,1.84,10.77,3.55,16,.68,2.08.08,4.83,1.22,6.45,1.47,2.09-.3,4.68,1.71,6.34A110,110,0,0,0,45,202.59c.57,2.13.06,4.83,1.2,6.46,1.46,2.09-.3,4.68,1.72,6.33A108.32,108.32,0,0,0,51,229.61c.57,2.13.06,4.83,1.2,6.46,1.46,2.08-.29,4.68,1.73,6.33.61,4.83,2.16,9.48,3,14.24.69,4,1.92,8,2.46,12S61.25,276.88,62,281c.69,3.68,1.62,7.32,2.47,11,1.24,5.33,2.49,10.66,3.52,16,.71,3.68,1.53,7.34,2.51,11,1.31,4.82,2.39,9.72,3.29,14.59.75,4,2.54,7.87,2.33,12.07,1.87,1.71.36,4.25,1.68,6.34,1.09,1.72.5,4.41,1.23,6.46,1.26,3.55,1.69,7.27,2.66,10.88C83,374,84,378.78,84.84,383.53c.67,4.05,1.88,8,2.49,12.06a54.84,54.84,0,0,0,2.59,10.87c.76,2,.17,4.71,1.22,6.47,1.32,2.21-.11,4.93,1.85,6.76.28,5.39,2.15,10.48,3.15,15.73.69,3.62,1.67,7.27,2.54,10.9,1.17,4.86,2.23,9.76,3.26,14.66.87,4.13,1.86,8.23,2.8,12.34,1.08,4.72,2.29,9.45,3.08,14.19.68,4.05,1.93,8,2.46,12.08s2.4,8,2.8,12.31c.16,1.76,1.27,3.44,1.93,5.12h2.84q56,0,112,0a12.56,12.56,0,0,1,6.37,1.57,156.8,156.8,0,0,0,17.1,8.16c8.74,3.47,17.14,7.7,25.81,11.33,4.83,2,9.32,4.89,14.22,6.69,8.27,3,16,7.21,24.16,10.48,6.12,2.46,12.21,5.2,18.12,8.13,8.72,4.32,17.84,7.7,26.47,12.18a31.39,31.39,0,0,0,3.83,1.61A121.24,121.24,0,0,1,377,582.26v12.45c0,1.5.55,3.32-.11,4.44-1.68,2.86-.41,5.73-1,8.65h3.82l1.15-1.15c.69-6.3-.31-12.48,1-18.73,1.07-5.2,0-10.67,1-16.08s.06-11,1.06-16.58c.89-4.93.25-10,.9-15.09.93-7.26,0-14.72,1.16-22.07.73-4.47-.45-9,.91-13.62.82-2.75.41-6,.08-8.95s1-5.69,1.11-8.59c.2-4.87-.15-9.69.76-14.62,1-5.54,0-11.35,1.08-17.07.86-4.59.17-9.34.92-14.09.91-5.74.08-11.7,1.11-17.57.82-4.62-.47-9.37.94-14.11.82-2.76.41-6,.08-8.95s1-5.69,1.11-8.59c.2-4.87-.15-9.69.76-14.62,1-5.54,0-11.35,1.08-17.07.9-4.92,0-10,.94-15.1,1-5.38,0-11,1-16.58.94-5.07,0-10.34,1-15.59s0-10.67,1-16.08c1-5.22,0-10.67,1-16.08s0-11.34,1-17.08c1-6.24-.14-12.68,1-19.09,1-5.56,0-11.35,1-17.08,1-5.41-.08-11,1-16.59s-.12-11.34,1-17.09c1-5.22,0-10.67,1-16.08s0-11.34,1-17.08c1-5.23,0-10.68,1-16.08,1-5.07-.42-10.38,1-15.59.69-2.48,0-5.31.16-8s-.39-5,.76-7.67C411.77,111.16,411,108.17,411,105.5ZM168.09,69.17h10.73l.21,3.66H168.09Zm-38,0h19.75l.2,3.68H130.09ZM50,66c2.94-.08,5.89,0,8.83,0l0,.83H41.16C44.06,65.68,47.06,66.09,50,66ZM30,66c2.94-.08,5.89,0,8.84,0q0,.42,0,.84H21.18C24.06,65.66,27,66.09,30,66ZM391.61,350.93c-.84-4.42-.46-8.84.07-13.29a1.9,1.9,0,0,1,.31,1.12A120.75,120.75,0,0,1,391.61,350.93Zm1.46-24.29c-.32,2.74-.07,5.54-.45,8.31-1-3.83-.37-7.73-.76-11.91H382.1v-5.92l3.82.47C391.71,321.34,393.4,323.77,393.07,326.64Zm-2.16-2.48v4.68h-8.66v-4.68Zm-17-17.28c-1.66-.6-1.61-.67-1.56-.67,3.4,0,6.81,0,10.48,0l.31,1.89Zm8.08,2.68-4.57-1.48A10.64,10.64,0,0,1,381.95,309.55ZM373.37,308c2.18,2.33.42,2.1-2.22.89l-.3,11.59c-.5-.73-.83-1-.83-1.23,0-3.63,0-7.27,0-11.28C371.13,308,372.25,308,373.37,308Zm7.5,15.25v4.39L379.5,329l-3.78-.61c-4.56-2.26-4.57-3.62-4.57-5.17Zm-9.53-1.39,1-4.68h8.59v4.68Zm.77-6v-4.65h9.95l-.64,2.16A15,15,0,0,1,372.11,315.86ZM382,313.6c.68-1,1-1.2,1-1.36,0-1.49.93-1.24,1.75-1.23.74.71.9.94,1.06.95,1.94.08,3.89,0,6,0v5h-3.21c-4.39-1.47-5.69-.68-6.59-1.45Zm4.47-7.43-1.86-.92a4.06,4.06,0,0,1,.79-.21c.12,0,.29.24.74.76a6.28,6.28,0,0,1,5.69,0h-5.66Zm-2.47-.7.43-.16C385,305.75,384.51,305.61,384,305.47Zm1.3,5.14c1.24-1.52,3.76-1.54,6.4-1.54l.49,1.66C389.84,311,387.6,311.37,385.3,310.61Zm8.53,8.23c-1.22-3.2-.61-6.45,0-9.65Zm-9.49-11c3.26-1.48,5.92-.31,8.5-1V304H393a6.31,6.31,0,0,1,1,3.82Zm10.27-5.89c-.84-4.42-.46-8.84.07-13.29a1.9,1.9,0,0,1,.31,1.12A120.75,120.75,0,0,1,394.61,301.93ZM406,111.82a2,2,0,0,0,0,1c.73,8.74-1.41,17.35-1.08,26.09.12,3.18-.73,6.38-.89,9.58s.63,6.84-.19,10c-1.3,4.91-.07,9.84-1,14.61-1.12,6-.12,12.17-1.09,18.07-.84,5.09,0,10.18-.93,15.1-1.1,6.05,0,12.19-1.08,18.07-.87,4.93-.37,9.77-.83,14.62-.22,2.34-.8,4.65-1.2,6.92-4.65-3-9.27-5.85-13.81-8.84-6.92-4.57-14-9-21-13.32-7.43-4.55-14.58-9.58-22.26-13.75-4.68-2.54-8.83-6-13.33-8.89-5.38-3.44-10.91-6.65-16.33-10-3.45-2.16-6.75-4.59-10.26-6.65-1.57-.92-3.34-1.95-5.56-1.13v3.36l6.34,3.46c.53,3.19,4.22,1.42,5.48,4.15V195a8.22,8.22,0,0,1,2.82.41c1.17.64,2.71,1.49,3.06,2.58.66,2.08,2.72.24,3.62,1.82.6,1.05,2.31,1.45,3.49,2.2q7.92,5,15.83,10c6.33,4,12.68,8,19,12,1.29.83,2.23,2,4,2.37,1.42.31,2.57,1.75,3.9,2.6s3,1.71,4.42,2.58,2.7,1.56,4,2.45c4.86,3.42,9.93,6.49,15,9.56,4,2.43,7.91,5.07,12,7.71-.38,2.54.15,5-.88,7.59-.85,2.16-.15,4.92-.18,7.42a9.94,9.94,0,0,1-.9,4.67V258.24l-.79,0c-.1.91-.25,1.82-.3,2.73s0,1.91,0,3.07c-2.43,0-4.58-.06-6.71,0-.44,0-.86.62-1.29,1h8v8l1,0h-1a30.31,30.31,0,0,1,.42,12,3.84,3.84,0,0,1-.4-1.15c0-3.61,0-7.23,0-10.84h-9v1.81h7.82v6.95l-2.2.74,2.38.79V288l.19.14c-2.07.8-.63,2.49-1.43,3.59l-2,.73,2.25.93V304c-3,0-5.4,0-7.76.06-.41,0-.8.58-1.19.91-1-.48-1.28-.68-1.62-.87-1.33,1.74-2.53-.74-4.07-.2s-3.22.11-4.84.11c-1.35-.58.59-2.8-1.51-3-.12,1.25-.12,2.5-.12,3.84a4.76,4.76,0,0,1-.77-.25c.18-1.22-.82-2.75.77-3.84A6.4,6.4,0,0,0,372,299c-3.17,1.23-1.38,3.93-2.36,6H367l2.27,1.88L364,307c.26.33.5.93.79,1,1.29.1,2.6,0,4.21,0v13c1.34,0,1,1,1,1.75,0,4.42,0,8.84,0,13.25.33-.26.94-.51,1-.79.08-2,0-3.93,0-6.21h3c3.79,1.47,5.1.66,6,1.48V344c1.38,0,.88-1.07,1-1.79.22-1.38.46-2.75.75-4.51-1.51-2.08-.39-4.84-.87-7.6H391V337l.26.2c-.77.37-1.21.71-1.22,1.07-.08,3.11,0,6.21,0,9.53H380V344c-1.88.23-.54,1.87-1.47,3.05-2.58-.55-5.67,1-8.53-1.29V336h-1v14.82l.65.09.72-3.11,1.21,2.49.59-2.12h6.64c.05.7.15,1.62.18,2.54s0,2,0,3.27h-4c.65,2.14,2.47.4,3.68,1.17.16,1,1.18,2.18-.68,2.83v2h-2.39c-1-.67-1.2-.94-1.38-1-1.61-.09-3.23,0-5,0v-5H375c0-1.37-1.06-.95-1.79-1-1.68-.1-3.43.31-5.3-1v13.92c-1.19-2.33-.83-4.74-.9-7.11a21.66,21.66,0,0,0-.81-6.81v8.38a45.58,45.58,0,0,0-4-3.37,32.34,32.34,0,0,0-4-1.92l-.31,2.65,8.33,4.58c-2.15,5.47-.23,11.08-1.46,16.21s-.15,10.28-1,15.37l1,.06.29-10H366q0,3.13,0,6.26c0,2.14,0,4.28,0,6.75h4c3.77,1.46,5,.7,5.8,1.25V403H373c.23,1.89,1.89.52,3,1.44v.71c-1.47,1.63-.54,3-1.56,3.69h-8.19V403H373c-.26-.33-.51-.94-.79-1-2-.08-3.94,0-6.25,0v-4.23c-.56.51-.93.69-.93.87A97.56,97.56,0,0,1,364.6,409c-.94-3.6-.29-7.33-.79-11.26-.45.58-.78.81-.78,1,0,3.64,0,7.27,0,11.25h11.15c-1.43,1.58-3.63,1.46-4.54,3.87,2.09.05,3.83.12,5.57.14s3.21,0,4.8,0v-1.52l-4.8-2.41h11.89c-.75-7.86,1.64-15.22.93-22.76-.06-.64,0-1.29,0-2.28h-9.91v-6H381v-4h-2l.75,2.79-1.75.29v-2.31c.57-.77.79-.77,1-.77v-2h2l-1.85-1.53v-4.16a4.28,4.28,0,0,1,1.14-.29c2.48,0,5-.06,7.43,0,.44,0,.85.62,1.28,1,1.34,0,1-1,1-1.75,0-4.37,0-8.74,0-13.11.46.16,1,.39,1,.62.06,5.9.09,11.81,0,17.71,0,.84-.7,1.66-1.42,3.25-.84-2.74-.4-4.76-.53-6.73-1.35,0-.86,1-1,1.76-.21,1-.5,2-.81,3.24H381c.25.33.5.94.77,1,1.94.08,3.89,0,6,0v5H381c.26.33.51.94.79,1,2,.08,3.94,0,6,0l.44,2.93.62,0,.39-8.06a33.37,33.37,0,0,1,0,14.46,12.5,12.5,0,0,0-.18,2.92c0,3.16.12,6.33,0,9.48-.15,2.86-.76,5.7-.93,8.57s.62,5.86-.2,8.43c-1.1,3.42-1,6.78-.73,10.11.26,3.81-1.15,7.34-1.11,11.07s.71,7.82-.16,11.43c-1.19,4.91-.56,9.74-.8,14.6-.15,3.05-1.5,5.89-1.11,9.07s.73,6.48-.07,9.43c-1.28,4.73-.66,9.4-.81,14.09-.1,3.23-1.51,6.23-1.12,9.57.36,3.12.77,6.52-.09,9.42-1.3,4.39-.37,8.74-.87,12.55-.85.92-1.64,1.44-1.92,2.16-.46,1.19-1.34.62-2.05.77l3,3.19c0,2.21.56,5.48-.12,8.46-1.46,6.37,0,12.84-1.06,19.08-.91,5.37-.46,10.7-1,16.3-6.19-2.73-12.2-5.34-18.18-8-6.88-3.1-13.68-6.39-20.62-9.37q-10-4.29-19.83-8.86c-6.71-3.11-13.42-6.23-20.2-9.17-6.08-2.64-12.08-5.45-18.16-8.07-6.37-2.74-12.58-5.83-19-8.52-7.1-3-14.06-6.3-21.05-9.53-2.22-1-4.57-1.82-6.82-2.85a8.15,8.15,0,0,0-3.24-.59c-7-.05-14,0-21,0h-93.6l-3.4-14.73,1.74-.36c.12-.19.41-.45.42-.72a11.17,11.17,0,0,0-.85-4.13c-.91-2.48-.93-5.27-1.5-7.89s-1.29-5.15-1.74-7.8c-.84-4.89-2.31-9.68-3.54-14.51-.54-2.13-.63-4.31-1.26-6.46-1-3.45-.94-7.28-2.23-10.59s-.71-7.23-2.86-10.31c.6-4.26-1.56-8.07-2.2-12.14-.57-3.59-.73-7.5-2.75-10.81.25-5.65-2.54-10.69-3.26-16.21-.46-3.58-.71-7.5-2.75-10.8.49-4.25-1.7-8-2.19-12.13-.58-4.91-2.32-9.67-3.44-14.53-.6-2.61-.68-5.36-1.51-7.89-.55-1.7-1.4-3.17-.52-5l3.17.87A5.34,5.34,0,0,1,87,347v-1.67l-3.16-2.13H124.5c1.2-2.59.23-4.75-1-7.41l-.93,2.07a13.91,13.91,0,0,1-3.92,1.09c-12.8.1-25.61.06-38.83.06-.64-2.29-1.36-4.5-1.85-6.75s-.1-4.75-1.18-6.48c-1.38-2.21-.35-4.64-1.7-6.85-1.07-1.74-.59-4.36-1.19-6.48-1.28-4.53-1.76-9.28-3.14-13.71-1.22-3.91-1.54-8-2.8-11.82-1.74-5.35-1.65-11.14-4-16.35.47-4.24-1.6-8.05-2.25-12.12-.57-3.6-1.77-7.29-2.45-10.88-.76-4-2.16-7.92-2.46-12.07-.22-3.07-1.52-6-2.21-9.08-.27-1.21-.45-2.45-.7-3.68s-.74-2.38-1-3.59c-1-5.53-2.54-11-3.65-16.45-.78-3.84-1.56-7.73-2.52-11.51-.82-3.22-.84-6.54-2.41-9.94H84.76c.68,2.12,2,4.56,2.11,7,.14,3.89,2.36,7.28,2.13,11.16,1.4.9.84,2.33,1,3.58a28.74,28.74,0,0,0,1,3.59c.73,2.5,1.47,5,2.34,7.91l2.61-1.84c.59-4.89-1.75-9.11-2.37-13.63-.76-5.6-2.56-11-3.57-16.52a9.74,9.74,0,0,1,0-1.36c1.07-.06,2.16-.17,3.26-.17,14.16,0,28.33,0,42.49,0a50.58,50.58,0,0,1,6.12.76,21.16,21.16,0,0,0-.84,2.92,12,12,0,0,0,0,3c.11.82-.71,2.12,1,2.3v-5.88l2.08,4.87h3.23c2-1.09,2.78-2.89,3.69-4.86V190c.33.26.94.51,1,.79.08,2,0,3.94,0,6l1.89.29V184.44c.46-.24.61-.37.69-.34s.34.22.34.34c0,4.11,0,8.23,0,12.7,3.16-.57,6,.53,8.87-1,1.29-.69,3.27-.24,4.92-.1,5.07.43,10-.83,15.33-1.25-.36-3.56.6-7.16-1-11.34l2.81,1.74c.53,3-.26,6,1.07,8.8V181.13H210v4.23q0,33.18.05,66.35c0,1.07-1,2.68.95,3.28v-1.48c.25-.17.51-.49.76-.5,4.27,0,8.54,0,12.91,0l.55,1.85c-4.86.33-9.55,0-14.22.17.26.31.51.92.79.93,1.83.09,3.67,0,5.49.07a12.55,12.55,0,0,1,4.2.68c1.67.67,4-.19,6.46-.42.15,2.26,0,4.86.05,7.45s0,5.29,0,8.1H212.51c-.49-.26-1-.54-1.6-.83s-1-.58-1.72-1v2.24a4.92,4.92,0,0,1-.52.56.81.81,0,0,1-.42.17H180.16v-4.76H167.11v4.54h-16v-4.59H129.2l-.35,4.64H106.52c-1.18,2.4-.24,4.43.45,6.55.81,2.53,1,5.21,1.63,7.81s1,5.3,1.58,7.89c.93,4.42,2.3,8.76,2.83,13.28,2.21,1.55.18,4.27,1.85,6.29,1.13,1.37.77,3.94,1.18,5.95a11.35,11.35,0,0,0,1,2.22h3.85l-6.82-30.25a1.34,1.34,0,0,1,.2-.31c.11-.11.26-.25.39-.25H199.9V278.13h9.05v4.46l2.29-3.45h16.65V294.8h-2.09c-.36.3-.59.4-.59.51,0,9.11,0,18.23,0,27.69H222c-.51-.7-.93-1.33-1.52-2.22L214,322.23V325c1.7-.22,2.19-3.33,4.76-1.63.4,1-1.44.86-1.6,1.8v4.4l3.12,1.95c-2.83,1.37-4.32-1-6.28-1.51v1.84l-4.82.27-.25,1.79h12.9l.17,2.19c-4.26-.54-8.48,1-12.94-1.59.27,3.67-.61,6.72.72,10,.76,1.89.8,4.49-.47,6.1.4,2.67.76,5,1.08,7.31s.59,4.45.92,7c3.21-1.4,6.72-.85,10.3-1l.65,1.78c-3.4.5-6.64,0-10,.29l-.38,1.27c.29.26.52.64.75.65,3.65,0,7.3,0,11.32,0-.38,6.46,1.23,12.64,1.1,19-.3,14.82-.1,29.64-.1,44.6l3.09,2.57.75.23c.07-2.34.15-4,.15-5.69q0-101.94,0-203.87c0-4.33.13-8.67,0-13-.21-5.7-.77-11.38-.93-17.08s0-11.62,0-17.77H175.18c2.38-1.32,4.9-.84,7.82-1.1,0-2.2,0-4.47,0-6.74-.05-2,.28-4.13-.92-6.13v9.81l-1.89.1v-10.8c-1.92-.05-3.8-.51-5.41,0s-2.81-1.88-4.22-.16c-1.43-1.69-3.35-.8-5.06-.93s-3.49-.46-5,.08c-1.82.67-3.11-2.55-4.8-.34L151,159.7v13.21c-1.3-3.8-.71-7.68-1.06-11.63l-1.66-.45-.41,5.17H146l2,4.05-1.5,3-1.42-3.85h-4.73c-2.1.22-.49,3.15-2.37,3.82l2.32,3h5.16l2.15-2,.8,2.2H155l0,.6H112.13V163.23H55.27c-.07.12-.21.26-.18.34s.22.35.34.35c18.44,0,36.89,0,55.45,0v12.87H44.5l-4.29-3.5,1.86-.62c-.62-8.87-3.4-17.43-5.23-26.12s-3.63-17.41-5.8-26c4.23-.79,62-1.07,80-.36V134c.33-.43,1-.86,1-1.29.07-5.47,0-10.94,0-16.59H30c-3.59-15.58-6.61-31.21-10.29-46.54,2.9-1.61,5.37.34,8-.42,2.46-.71,5.29-.15,8-.15H60.41c1.22,5.21,2.72,10.18,3.5,15.26a134.35,134.35,0,0,0,3.45,15.6l3.84.18C70,89.46,66.77,79.58,64.77,69.21H129v4.61h21.88l.28-4.67h15.78V74c2.65,0,5-.35,7.23.1a11.53,11.53,0,0,0,5.77-.41V69.21H225v89.62h3.89c-.25-2,1.14-4.22-.78-6.24-.25-3.86-.4-7.71,1.83-11.13a20.12,20.12,0,0,1-.87-4.09c-.07-12.32,0-24.64,0-37.16H407.08C406.45,104.13,408.08,108.1,406,111.82Zm-24,254c0-.25,0-.48,0-.7a4.47,4.47,0,0,1-2.81,1v-4.78l.41-.11a13.44,13.44,0,0,1,.39,1.66,19.91,19.91,0,0,1,0,2l2,.17a24.1,24.1,0,0,0-.58-3.82h7.47v4.41c-2.41,1.35-4.58-.34-6.68-.7l-.2.17ZM380.17,360v-4.94h8.66V360C386.13,360.07,383.24,360,380.17,360Zm-.07-5.9V349.2h9.74v3.88C386.75,354.87,383.42,353.56,380.1,354.12Zm-12.92,35.71-.23-4.66h10v4.66Zm8.59,1.28V397l-4-.59c-4.64-2.51-4.65-3.85-4.65-5.27Zm-8.19-9.46a14.88,14.88,0,0,1,9.31-2.51v4.65h-9.95Zm-1-14.63a3.85,3.85,0,0,1,.4,1.15c0,3,0,6,0,9C366,374.62,366.17,370.84,366.59,367Zm19.31,37.12v4.65H376.3c-.78-1.14-.28-2.05.25-3A21.68,21.68,0,0,1,385.89,404.14Zm-8.71-1.32-.24-4.65h9v4.65Zm0-6v-4.76h9.66v4.61c.07-.07,0,.14-.17.14C383.55,396.85,380.45,396.84,377.17,396.84Zm1.12-6c-1-1.84.6-1.68,1.7-2.18l-.23-1.82-1.46,1.36-.36-2h9v4.66Zm-.87-15.44a15,15,0,0,1-9.3,2.49v-4.65h9.95Zm.49-8.21v4.68h-9.66v-4.68Zm-8.7-1.25v-5.62c2.2-.82,4.25-.28,6.38.35,2.25,2.54,2.25,3.87,2.25,5.27ZM151.33,183v-1h.33v1Zm14.83-14.17v-5.65C167.4,165,166.79,166.93,166.17,168.83Zm45,83.07V181.1h13.65V251.9Zm-12.35,26.2v12.8h-1.65V278.1Zm-3,.11v12.72H114.42l-1-1-2.55-11.75Zm-65.87-9h19.95v3.66H130.19Zm38.13,3.66v-3.66h10.73l.21,3.66ZM222,323h0a2.88,2.88,0,0,1-.59.91l-.32-.32.82-.7Z" transform="translate(-4 -10.84)"/>
	<path class="cls-1" d="M514,418.14c0-1,0-1.8,0-2.95l2.56-.29,3.19,8.11.46-8.77,4.46,3.67c.61-2.06,1.52-3.65,4.4-2.55v4.56l.59.08,1.73-4.84H534l2.83,6.05v-6.08c1.88.17,3.68-1.17,5.11.92-.87.07-1.79.07-2.72.07v2.75h2.65c0-1,0-2,.07-2.82a14.68,14.68,0,0,1,1.94-.07c-.09,1-.15,2-.29,2.9S543.2,421,543,422l-3.8-2.43v3.2l-3.74.35-1.33-2h-2.9l-.38,1.67h-4.64l-.55-2.94-1.42,1.32L522.2,420v2.79l-4.94.28-.36-1.66c-2-1.48-3.09.36-4.38,1.57h-7.17l-2.57-3.84h-3.58v2.65l3.79.43a22.63,22.63,0,0,1-8.65.61c-.15,0-.24-.53-.35-.82h1.85v-6.8h7.05l0,.53-3.89.51-.08,1.55,4.41.25,1.79-2.91h6.67l.12,1.42c-1.59,1.21-2.73,0-4.29-.71-.37.36-1,.72-1.22,1.24-.93,2-.83,3.73,1.31,4.93.86-.34,1.71-.71,2.58-1a1.57,1.57,0,0,1,.69,0c1.09-1.1,2-2.05,3-2.86,0,.46.06,1.05.13,1.87l1.94-.21-.27-3A13.64,13.64,0,0,1,514,418.14Zm19.41,2,.66-.66-.3-1.55-2.5.47Z" transform="translate(-4 -10.84)"/>
	<path class="cls-1" d="M159.62,11.77c-5.53,0-11.43,0-17.34,0-.07,0-.13-.22-.2-.34C149.35,10.48,157.88,10.75,159.62,11.77Z" transform="translate(-4 -10.84)"/>
	<path class="cls-1" d="M47,12c5.65-1.18,11.3-.91,17-.41a3.86,3.86,0,0,1-1.15.4C57.55,12,52.27,12,47,12Z" transform="translate(-4 -10.84)"/>
	<path class="cls-1" d="M160,12c5.08,0,10.17,0,15.25,0,.72,0,1.74-.36,1.75,1-5.08,0-10.17,0-15.25,0C161,13,160,13.34,160,12Z" transform="translate(-4 -10.84)"/>
	<path class="cls-1" d="M411,96c0-4.75,0-9.5,0-14.25,0-.72-.35-1.74,1-1.75,0,4.75,0,9.5,0,14.25C412,95,412.34,96,411,96Z" transform="translate(-4 -10.84)"/>
	<path class="cls-1" d="M9.18,42.87V39.13L9.63,39l.69,2H19C15.85,42.72,12.35,41,9.18,42.87Z" transform="translate(-4 -10.84)"/>
	<path class="cls-1" d="M47,13a91.27,91.27,0,0,1-13-.56,3.85,3.85,0,0,1,1.15-.4c4,0,7.9,0,11.86,0Z" transform="translate(-4 -10.84)"/>
	<path class="cls-1" d="M226.82,54.83h-9.65C220.36,53.61,223.6,54.24,226.82,54.83Z" transform="translate(-4 -10.84)"/>
	<path class="cls-1" d="M163.28,51.17c2.22-2.61,4.88-2.17,7.59-1.52Z" transform="translate(-4 -10.84)"/>
	<path class="cls-1" d="M238,55.75H228v-.5h10Z" transform="translate(-4 -10.84)"/>
	<path class="cls-1" d="M248.85,55.82H239.1c.18-.37.29-.79.4-.8,3.1,0,6.21,0,9.31,0Z" transform="translate(-4 -10.84)"/>
	<path class="cls-1" d="M250,56.25h10v.5H250Z" transform="translate(-4 -10.84)"/>
	<path class="cls-1" d="M261.18,57.16h9.65C267.64,58.4,264.4,57.76,261.18,57.16Z" transform="translate(-4 -10.84)"/>
	<path class="cls-1" d="M216,53.75H206v-.5h10Z" transform="translate(-4 -10.84)"/>
	<path class="cls-1" d="M20.2,41.18h9.65C26.65,42.38,23.39,41.79,20.2,41.18Z" transform="translate(-4 -10.84)"/>
	<path class="cls-1" d="M40.82,42.84H31.17C34.36,41.6,37.6,42.24,40.82,42.84Z" transform="translate(-4 -10.84)"/>
	<path class="cls-1" d="M358.83,63.83h-9.65c1.49-1.15,3.19-.74,4.8-.82s3.23,0,4.85,0Z" transform="translate(-4 -10.84)"/>
	<path class="cls-1" d="M177,13c2.92,0,5.84,0,8.76,0,.42,0,.83.62,1.24,1-2.92,0-5.84,0-8.76,0C177.82,13.94,177.41,13.33,177,13Z" transform="translate(-4 -10.84)"/>
	<path class="cls-1" d="M380.81,64.83h-9.65C374.36,63.61,377.61,64.22,380.81,64.83Z" transform="translate(-4 -10.84)"/>
	<path class="cls-1" d="M347.84,62.83h-9.65c1.48-1.15,3.18-.74,4.79-.81s3.23,0,4.85,0Z" transform="translate(-4 -10.84)"/>
	<path class="cls-1" d="M187,14c2.92,0,5.84,0,8.76,0,.42,0,.83.62,1.24,1-2.92,0-5.84,0-8.76,0C187.82,14.94,187.41,14.33,187,14Z" transform="translate(-4 -10.84)"/>
	<path class="cls-1" d="M32.82,13.83H24.17C27,12.66,29.93,13.17,32.82,13.83Z" transform="translate(-4 -10.84)"/>
	<path class="cls-1" d="M14,14.24A14.55,14.55,0,0,1,15.74,14a20.32,20.32,0,0,1,7.22.84c-1.52,0-3,.12-4.55.14s-3,0-4.47,0Z" transform="translate(-4 -10.84)"/>
	<path class="cls-1" d="M197.19,15.11H206C202.72,16.41,199.2,16.32,197.19,15.11Z" transform="translate(-4 -10.84)"/>
	<path class="cls-1" d="M94.81,46.83H86.16C89,45.61,91.94,46.26,94.81,46.83Z" transform="translate(-4 -10.84)"/>
	<path class="cls-1" d="M105.82,46.84H97.18C100,45.65,102.93,46.17,105.82,46.84Z" transform="translate(-4 -10.84)"/>
	<path class="cls-1" d="M116.82,47.83h-8.65C111,46.59,113.94,47.28,116.82,47.83Z" transform="translate(-4 -10.84)"/>
	<path class="cls-1" d="M119.17,48.17h8.65C125,49.45,122.07,48.7,119.17,48.17Z" transform="translate(-4 -10.84)"/>
	<path class="cls-1" d="M130.15,48.17h9.57c-2.2,1.26-3.76.71-5.2.81s-2.9,0-4.35,0Z" transform="translate(-4 -10.84)"/>
	<path class="cls-1" d="M149.83,49.83h-8.65C144,48.55,146.93,49.3,149.83,49.83Z" transform="translate(-4 -10.84)"/>
	<path class="cls-1" d="M152.15,50.18h8.76c-.18.37-.29.79-.4.8-2.77,0-5.54,0-8.31,0Z" transform="translate(-4 -10.84)"/>
	<path class="cls-1" d="M196.2,53.17h8.65C202,54.36,199.06,53.75,196.2,53.17Z" transform="translate(-4 -10.84)"/>
	<path class="cls-1" d="M382.16,65.17h9.53c-2.17,1.29-3.73.71-5.18.81s-2.9,0-4.35,0Z" transform="translate(-4 -10.84)"/>
	<path class="cls-1" d="M393.2,65.18h8.65C399,66.32,396.06,65.84,393.2,65.18Z" transform="translate(-4 -10.84)"/>
	<path class="cls-1" d="M280.85,58.83h-9.57c2.2-1.26,3.76-.71,5.2-.81s2.9,0,4.35,0Z" transform="translate(-4 -10.84)"/>
	<path class="cls-1" d="M291.81,58.83h-8.65C286,57.61,288.94,58.26,291.81,58.83Z" transform="translate(-4 -10.84)"/>
	<path class="cls-1" d="M294,59.25h9v.5h-9Z" transform="translate(-4 -10.84)"/>
	<path class="cls-1" d="M313.8,60.82h-8.65C308,59.68,310.94,60.16,313.8,60.82Z" transform="translate(-4 -10.84)"/>
	<path class="cls-1" d="M324.8,60.83h-8.65C319,59.67,321.94,60.16,324.8,60.83Z" transform="translate(-4 -10.84)"/>
	<path class="cls-1" d="M335.82,61.83h-8.65C330,60.59,332.94,61.28,335.82,61.83Z" transform="translate(-4 -10.84)"/>
	<path class="cls-1" d="M50.8,43.82H42.15C45,42.68,47.94,43.16,50.8,43.82Z" transform="translate(-4 -10.84)"/>
	<path class="cls-1" d="M53.17,43.17h8.65C59,44.45,56.07,43.7,53.17,43.17Z" transform="translate(-4 -10.84)"/>
	<path class="cls-1" d="M64.18,44.16h8.65C70,45.35,67.07,44.83,64.18,44.16Z" transform="translate(-4 -10.84)"/>
	<path class="cls-1" d="M83.85,45.83H74.27c2.2-1.26,3.76-.71,5.2-.81s2.9,0,4.35,0Z" transform="translate(-4 -10.84)"/>
	<path class="cls-1" d="M360.16,63.17h9.53c-2.17,1.29-3.73.71-5.18.81s-2.9,0-4.35,0Z" transform="translate(-4 -10.84)"/>
	<path class="cls-1" d="M214.81,16.88H207C210.23,15.61,212.81,15.69,214.81,16.88Z" transform="translate(-4 -10.84)"/>
	<path class="cls-1" d="M528.29,430.1h5.48l.31,1.94-6-1.45Z" transform="translate(-4 -10.84)"/>
	<path class="cls-1" d="M521.29,255.1h5.48l.31,1.94-6-1.45Z" transform="translate(-4 -10.84)"/>
	<path class="cls-1" d="M215.19,17.12H222C218.83,18.37,217.18,18.31,215.19,17.12Z" transform="translate(-4 -10.84)"/>
	<path class="cls-1" d="M52.81,25.88H47C50.11,24.65,50.82,24.68,52.81,25.88Z" transform="translate(-4 -10.84)"/>
	<path class="cls-1" d="M476.91,259.69v2.14h-2.84C473.84,258.87,475.81,260.53,476.91,259.69Z" transform="translate(-4 -10.84)"/>
	<path class="cls-1" d="M278.81,71.88H273C276.11,70.65,276.82,70.68,278.81,71.88Z" transform="translate(-4 -10.84)"/>
	<path class="cls-1" d="M332.81,82.88H327C330.11,81.65,330.82,81.68,332.81,82.88Z" transform="translate(-4 -10.84)"/>
	<path class="cls-1" d="M82.19,32.12H88C84.89,33.35,84.18,33.32,82.19,32.12Z" transform="translate(-4 -10.84)"/>
	<path class="cls-1" d="M362.19,89.12H368C364.89,90.35,364.18,90.32,362.19,89.12Z" transform="translate(-4 -10.84)"/>
	<path class="cls-1" d="M484.91,435.17v1.65h-2.82v-1.65Z" transform="translate(-4 -10.84)"/>
	<path class="cls-1" d="M136.19,43.12H142C138.89,44.35,138.18,44.32,136.19,43.12Z" transform="translate(-4 -10.84)"/>
	<path class="cls-1" d="M484.91,389.17v1.65h-2.82v-1.65Z" transform="translate(-4 -10.84)"/>
	<path class="cls-1" d="M587,421l-2.52-1.84L587,417Z" transform="translate(-4 -10.84)"/>
	<path class="cls-1" d="M224.81,60.88H219C222.11,59.65,222.82,59.68,224.81,60.88Z" transform="translate(-4 -10.84)"/>
	<path class="cls-1" d="M603,416h2v3h-2Z" transform="translate(-4 -10.84)"/>
	<path class="cls-1" d="M190.19,54.12H195C192.09,55.27,192.09,55.27,190.19,54.12Z" transform="translate(-4 -10.84)"/>
	<path class="cls-1" d="M22.84,19.83H17C19.65,18.56,21.26,19.3,22.84,19.83Z" transform="translate(-4 -10.84)"/>
	<path class="cls-1" d="M385.8,93.83h-4.65C382.66,92.7,384.26,93.13,385.8,93.83Z" transform="translate(-4 -10.84)"/>
	<path class="cls-1" d="M258.81,23.88H254C256.91,22.73,256.91,22.73,258.81,23.88Z" transform="translate(-4 -10.84)"/>
	<path class="cls-1" d="M259,24a37.31,37.31,0,0,1,3.8,0c.43,0,.8.62,1.2,1a37.31,37.31,0,0,1-3.8,0C259.77,24.91,259.4,24.33,259,24Z" transform="translate(-4 -10.84)"/>
	<path class="cls-1" d="M264.19,25.12H269C266.09,26.27,266.09,26.27,264.19,25.12Z" transform="translate(-4 -10.84)"/>
	<path class="cls-1" d="M288.83,29.84H283A6.34,6.34,0,0,1,288.83,29.84Z" transform="translate(-4 -10.84)"/>
	<path class="cls-1" d="M244.19,65.12H249C246.09,66.27,246.09,66.27,244.19,65.12Z" transform="translate(-4 -10.84)"/>
	<path class="cls-1" d="M474.09,331.74l2.6-2.12.43,2.12Z" transform="translate(-4 -10.84)"/>
	<path class="cls-1" d="M200.18,56.17h3.65l0,.62L200.2,57Z" transform="translate(-4 -10.84)"/>
	<path class="cls-1" d="M215,58.75h-4v-.5h4Z" transform="translate(-4 -10.84)"/>
	<path class="cls-1" d="M506.83,327.18v3.65l-.62,0L506,327.2Z" transform="translate(-4 -10.84)"/>
	<path class="cls-1" d="M233.83,62.83h-3.65l0-.62,3.65-.25Z" transform="translate(-4 -10.84)"/>
	<path class="cls-1" d="M115.75,39.12h4.09a4.76,4.76,0,0,1-.25.77C118.36,39.71,116.83,40.72,115.75,39.12Z" transform="translate(-4 -10.84)"/>
	<path class="cls-1" d="M539,275a2.48,2.48,0,0,1,0-4Z" transform="translate(-4 -10.84)"/>
	<path class="cls-1" d="M257.85,67.83h-3.65l0-.62,3.62-.24Z" transform="translate(-4 -10.84)"/>
	<path class="cls-1" d="M268.82,69.83h-3.65l0-.62L268.8,69Z" transform="translate(-4 -10.84)"/>
	<path class="cls-1" d="M284.19,73.17h3.65l0,.61-3.7.25Z" transform="translate(-4 -10.84)"/>
	<path class="cls-1" d="M474.09,375.74l2.6-2.12.43,2.12Z" transform="translate(-4 -10.84)"/>
	<path class="cls-1" d="M341.81,84.88h-3.64c.12-.36.17-.77.26-.77C340.34,84,340.34,84,341.81,84.88Z" transform="translate(-4 -10.84)"/>
	<path class="cls-1" d="M342.19,85.12h3.64c-.12.36-.17.77-.26.77C343.66,86,343.66,86,342.19,85.12Z" transform="translate(-4 -10.84)"/>
	<path class="cls-1" d="M352.81,86.88h-3.64c.12-.36.17-.77.26-.77C351.34,86,351.34,86,352.81,86.88Z" transform="translate(-4 -10.84)"/>
	<path class="cls-1" d="M353.19,87.12h3.64c-.12.36-.17.77-.26.77C354.66,88,354.66,88,353.19,87.12Z" transform="translate(-4 -10.84)"/>
	<path class="cls-1" d="M395.81,95.88h-3.64c.12-.36.17-.77.26-.77C394.34,95,394.34,95,395.81,95.88Z" transform="translate(-4 -10.84)"/>
	<path class="cls-1" d="M396.19,96.12h3.64c-.12.36-.17.77-.26.77C397.66,97,397.66,97,396.19,96.12Z" transform="translate(-4 -10.84)"/>
	<path class="cls-1" d="M116.25,38.88h-4.09a4.76,4.76,0,0,1,.25-.77C113.64,38.29,115.17,37.28,116.25,38.88Z" transform="translate(-4 -10.84)"/>
	<path class="cls-1" d="M539,345a2.48,2.48,0,0,1,0-4Z" transform="translate(-4 -10.84)"/>
	<path class="cls-1" d="M477.91,359.26l-2.6,2.12-.43-2.12Z" transform="translate(-4 -10.84)"/>
	<path class="cls-1" d="M8.75,17.12h4.09a4.76,4.76,0,0,1-.25.77C11.36,17.71,9.83,18.72,8.75,17.12Z" transform="translate(-4 -10.84)"/>
	<path class="cls-1" d="M588,422h4A2.48,2.48,0,0,1,588,422Z" transform="translate(-4 -10.84)"/>
	<path class="cls-1" d="M5.75,21v4h-.5V21Z" transform="translate(-4 -10.84)"/>
	<path class="cls-1" d="M525,327a2.48,2.48,0,0,1,0,4Z" transform="translate(-4 -10.84)"/>
	<path class="cls-1" d="M474.85,289.41l1.74-2.14.47,2.5-1.55.3Z" transform="translate(-4 -10.84)"/>
	<path class="cls-1" d="M58.18,27.17h3.65l0,.62L58.2,28Z" transform="translate(-4 -10.84)"/>
	<path class="cls-1" d="M73.25,29.88H69.16a4.76,4.76,0,0,1,.25-.77C70.64,29.29,72.17,28.28,73.25,29.88Z" transform="translate(-4 -10.84)"/>
	<path class="cls-1" d="M72.75,30.12h4.09a4.76,4.76,0,0,1-.25.77C75.36,30.71,73.83,31.72,72.75,30.12Z" transform="translate(-4 -10.84)"/>
	<path class="cls-1" d="M475,316.74v-1.45l1.75-.37.37,1.82Z" transform="translate(-4 -10.84)"/>
	<path class="cls-1" d="M621,312a2.48,2.48,0,0,1,0,4Z" transform="translate(-4 -10.84)"/>
	<path class="cls-1" d="M481.09,406.74l2.6-2.12.43,2.12Z" transform="translate(-4 -10.84)"/>
	<path class="cls-1" d="M476.74,304h-1.45l-.37-1.75,1.82-.37Z" transform="translate(-4 -10.84)"/>
	<path class="cls-1" d="M8.83,34.19v3.65l-.61,0L8,34.19Z" transform="translate(-4 -10.84)"/>
	<path class="cls-1" d="M588,415.26h3.92v.45H588Z" transform="translate(-4 -10.84)"/>
	<path class="cls-1" d="M323,38a17.82,17.82,0,0,1-2.82,0c-.43-.07-.79-.62-1.18-1a17.82,17.82,0,0,1,2.82,0C322.25,37.12,322.61,37.67,323,38Z" transform="translate(-4 -10.84)"/>
	<path class="cls-1" d="M533.41,304.15l-2.14-1.74,2.5-.47.3,1.55Z" transform="translate(-4 -10.84)"/>
	<path class="cls-1" d="M323,38a17.82,17.82,0,0,1,2.82,0c.43.07.79.62,1.18,1a17.82,17.82,0,0,1-2.82,0C323.75,38.88,323.39,38.33,323,38Z" transform="translate(-4 -10.84)"/>
	<path class="cls-1" d="M330,40a17.82,17.82,0,0,1,2.82,0c.43.07.79.62,1.18,1a17.82,17.82,0,0,1-2.82,0C330.75,40.88,330.39,40.33,330,40Z" transform="translate(-4 -10.84)"/>
	<path class="cls-1" d="M130.81,41.83h-3.65l0-.61,3.7-.25Z" transform="translate(-4 -10.84)"/>
	<path class="cls-1" d="M149.81,45.83h-3.65l0-.61,3.7-.25Z" transform="translate(-4 -10.84)"/>
	<path class="cls-1" d="M477.15,345.59l-1.74,2.14-.47-2.5,1.55-.3Z" transform="translate(-4 -10.84)"/>
	<path class="cls-1" d="M334.15,41.12H337C335.31,42.05,335.31,42.05,334.15,41.12Z" transform="translate(-4 -10.84)"/>
	<path class="cls-1" d="M135.85,42.88H133C134.69,41.95,134.69,41.95,135.85,42.88Z" transform="translate(-4 -10.84)"/>
	<path class="cls-1" d="M357.85,47.88H355C356.69,46.95,356.69,46.95,357.85,47.88Z" transform="translate(-4 -10.84)"/>
	<path class="cls-1" d="M358,48c1,.38,2.53-.93,3,1C360,48.62,358.47,49.93,358,48Z" transform="translate(-4 -10.84)"/>
	<path class="cls-1" d="M364,50c-1-.38-2.53.93-3-1C362,49.38,363.53,48.07,364,50Z" transform="translate(-4 -10.84)"/>
	<path class="cls-1" d="M364.15,50.12H367C365.31,51.05,365.31,51.05,364.15,50.12Z" transform="translate(-4 -10.84)"/>
	<path class="cls-1" d="M379.85,54.88H377C378.69,53.95,378.69,53.95,379.85,54.88Z" transform="translate(-4 -10.84)"/>
	<path class="cls-1" d="M380.15,55.12H383C381.31,56.05,381.31,56.05,380.15,55.12Z" transform="translate(-4 -10.84)"/>
	<path class="cls-1" d="M14.16,63.83V61.17l.52,0,.37,2.65Z" transform="translate(-4 -10.84)"/>
	<path class="cls-1" d="M225.15,61.12H228C226.31,62.05,226.31,62.05,225.15,61.12Z" transform="translate(-4 -10.84)"/>
	<path class="cls-1" d="M400,62c1,.38,2.53-.93,3,1C402,62.62,400.47,63.93,400,62Z" transform="translate(-4 -10.84)"/>
	<path class="cls-1" d="M406,64c-1-.38-2.53.93-3-1C404,63.38,405.53,62.07,406,64Z" transform="translate(-4 -10.84)"/>
	<path class="cls-1" d="M243.85,64.88H241C242.69,63.95,242.69,63.95,243.85,64.88Z" transform="translate(-4 -10.84)"/>
	<path class="cls-1" d="M279.15,72.12H282C280.31,73.05,280.31,73.05,279.15,72.12Z" transform="translate(-4 -10.84)"/>
	<path class="cls-1" d="M333.15,83.12H336C334.31,84.05,334.31,84.05,333.15,83.12Z" transform="translate(-4 -10.84)"/>
	<path class="cls-1" d="M361.85,88.88H359C360.69,87.95,360.69,87.95,361.85,88.88Z" transform="translate(-4 -10.84)"/>
	<path class="cls-1" d="M508.17,332.16h2.66l0,.52-2.65.37Z" transform="translate(-4 -10.84)"/>
	<path class="cls-1" d="M399.85,61.88H397C398.69,60.95,398.69,60.95,399.85,61.88Z" transform="translate(-4 -10.84)"/>
	<path class="cls-1" d="M508,325.25h3v.5h-3Z" transform="translate(-4 -10.84)"/>
	<path class="cls-1" d="M53.15,26.12H56C54.31,27.05,54.31,27.05,53.15,26.12Z" transform="translate(-4 -10.84)"/>
	<path class="cls-1" d="M318.85,36.88H316C317.69,35.95,317.69,35.95,318.85,36.88Z" transform="translate(-4 -10.84)"/>
	<path class="cls-1" d="M327,39c1,.38,2.53-.93,3,1C329,39.62,327.47,40.93,327,39Z" transform="translate(-4 -10.84)"/>
	<path class="cls-1" d="M408,65c-.76-.15-1.91.5-2-1C406.76,64.15,407.91,63.5,408,65Z" transform="translate(-4 -10.84)"/>
	<path class="cls-1" d="M79.58,30.85l2.42.69a8.24,8.24,0,0,1-1.4.43C80.46,32,80.26,31.61,79.58,30.85Z" transform="translate(-4 -10.84)"/>
	<path class="cls-1" d="M15,18.25h2v.5H15Z" transform="translate(-4 -10.84)"/>
	<path class="cls-1" d="M550.42,408.15l-2.42-.69a8.24,8.24,0,0,1,1.4-.43C549.54,407,549.74,407.39,550.42,408.15Z" transform="translate(-4 -10.84)"/>
	<path class="cls-1" d="M491.91,375.1l-.82-.7.32-.32.7.82Z" transform="translate(-4 -10.84)"/>
	<path class="cls-1" d="M492.1,369.09l-.7.82-.32-.32.82-.7Z" transform="translate(-4 -10.84)"/>
	<path class="cls-1" d="M524,326l1,1Z" transform="translate(-4 -10.84)"/>
	<path class="cls-1" d="M539,341l1-1Z" transform="translate(-4 -10.84)"/>
	<path class="cls-1" d="M540,276l-1-1Z" transform="translate(-4 -10.84)"/>
	<path class="cls-1" d="M525,331l-1,1Z" transform="translate(-4 -10.84)"/>
	<path class="cls-1" d="M620,311l1,1Z" transform="translate(-4 -10.84)"/>
	<path class="cls-1" d="M531.09,275.9l.82.7-.32.32-.7-.82Z" transform="translate(-4 -10.84)"/>
	<path class="cls-1" d="M539,271l1-1Z" transform="translate(-4 -10.84)"/>
	<path class="cls-1" d="M588,422l-1-1Z" transform="translate(-4 -10.84)"/>
	<path class="cls-1" d="M593,422h-1l.67-.83Z" transform="translate(-4 -10.84)"/>
	<path class="cls-1" d="M621,316l-1,1Z" transform="translate(-4 -10.84)"/>
	<path class="cls-1" d="M531.09,345.9l.82.7-.32.32-.7-.82Z" transform="translate(-4 -10.84)"/>
	<path class="cls-1" d="M588,416l-1,1Z" transform="translate(-4 -10.84)"/>
	<path class="cls-1" d="M540,346l-1-1Z" transform="translate(-4 -10.84)"/>
	<path class="cls-1" d="M304,153.46l4.35-4.35,2.19-.2L312.5,147a28,28,0,0,0,4.28,0,25.26,25.26,0,0,0,4-1.27A20.25,20.25,0,0,1,327.49,133h5.16c2.94,3.72,6.29,7.35,6.52,12.81h2.7a12.73,12.73,0,0,1,.17-2.63,24.14,24.14,0,0,1,1.23-3c.35-.86.66-1.74,1.2-3.19l4-3.89h4.28c3.74,2,4.73,4.62,8.1,13.21a7.86,7.86,0,0,0,2.23-3.89c.94-3.53,2-7.08,5.64-9.38h6c1.2,4.42,5.8,7.28,5.29,12.59,5.62,1.52,11.78,2,16,6.84v6.37L388.08,164h-4.66l-.79,1.94H318.38l-.83-2c-4.93,1.57-8.09-2.48-12.3-4.19C304,158,303.84,155.78,304,153.46Zm77.87-6.3H319c.05,6.06-.06,12,.07,17.68h62.86Zm-66.55,3.7-5.13,1.44v6.61l6.67,1.28V152.4Zm31.87-11.49c-.09.5-.21,1.43-.44,2.32s-.64,1.94-1,3.09h10c1.43-2.88-2.21-3.48-2.12-5.46l-3.71-1.26Zm23.66-1.06-3.6.93-1.18,5.59h10.13l-1.66-6-3.32,1.39Zm18.76,14.06c-1.81-1.22-3.56-1.89-5.55-1.1v8.52c2.9.77,5-.46,6.88-2.26Zm-59.1-12.67L326.4,139l-1.34,5.79h10.2l-1.7-6ZM395,154.19,393,155.3l1.85,2.13Zm-88.87,1.65.87-.1-.39-1.64-.48.08Z" transform="translate(-4 -10.84)"/>
	<path class="cls-1" d="M260,107c3.91,1.9,7.44,3.5,9,8.41.6,6.6-4.62,13.79-16,12.6-3.67-1.76-7.35-3.35-9-8.3a6.45,6.45,0,0,0,0-1.11c-.23-3,.27-5.76,2.74-7.84s5.3-4,8.92-3.77C257.14,107.08,258.64,107,260,107Zm-9.39,11.1c3.26-.62,1.51-4.14,4-5h2.81c1.66,1.19,3,2.68,2.79,4.76h2.69v-3.72l-3.77-4H252.4c-1.84,1.78-3.55,3.48-3.38,6.56Z" transform="translate(-4 -10.84)"/>
	<path class="cls-1" d="M143.83,448v10.86l-.51.05c-.11-.66-.27-1.32-.31-2-.23-3.87.61-7.81-1-11.59-.27-.65,0-1.53.12-3.18l2.47,2.68h9l.58-1.68h2.37l.92,1.89,1.14-2.53L161.6,445h5.87l2.06-1.94,1.88,1.88h10.23l.86-2.23,2.28,2.1h11l.64-1.85c.21.19.43.29.43.4,0,5.11,0,10.23,0,15.5H169.14V448.15h-12v10.46c-.47.19-.62.31-.7.27s-.34-.22-.35-.34c0-3.45,0-6.9,0-10.54Zm52.09.17H184c0,1.81,0,3.45,0,5.08s.11,3.18.16,4.57h11.75Zm-14.09,9.74v-9.66h-12c.86,3.34-1.17,6.83,1.41,9.66Z" transform="translate(-4 -10.84)"/>
	<path class="cls-1" d="M297,318.45c-9.57-5.66-18.64-11.73-27.86-17.56v-96.6l1.24-.36c.26.3.64.52.64.75q0,47.43,0,94.76c2.73,1.72,5.35,3.4,8,5,5,3.13,9.82,6.67,15,9.51C295.62,314.87,297.2,315.79,297,318.45Z" transform="translate(-4 -10.84)"/>
	<path class="cls-1" d="M367,305H349.21l-.09-.64c.78-.12,1.56-.28,2.34-.34s1.58,0,2.44,0V290.3l-11.83-1.58c-.16,3,0,5.75-.1,8.5,0,.72.38,1.77-1,1.78,0-4.75,0-9.5,0-14.25,0-.72-.35-1.74,1.5-3.67,1,1.15-1.6,3.73-.22,6.71h5.61v-8.63a7.27,7.27,0,0,0-5.39,1.92c-.51-.23-.51-2.39-.51-4.84,2-.48,4.15-.2,6.24-.22s4.27.07,6.41.17c.13,0,.24.53.35.81-3.9.07-7.8.13-11.7.22-.08,0-.16.22-.56.78,2.53,0,4.77-.05,7,0,.43,0,.84.62,2.69,1.62-.26.16-1.71-.27-3.22-.72v9.95h4.65a22.48,22.48,0,0,0-1.43-9.23c4.51-.66,10.44-.66,16.57-.66,0-1.94,0-3.58,0-5.21,0-.28-.62-.53-1-.79v-6.43L366,265c.76-.15,1.91.5,2-1h2.62l.68,2h6.6l0,.45L373,268.3v2.5l5,.38,0,.67h-6.16l.67,5-2.54.39.24,3.49,1.56-3.37v4.44a2.77,2.77,0,0,1-.7-.23,8.81,8.81,0,0,0-5.83-1.59c-1.63.13-3.27,0-5.25,0,0,1.44,0,2.72-.14,6.45,1.09-.81-1.39-3.46-1-6.29H355.2v8.74a4.53,4.53,0,0,0,4.66-2.45c.47-2.2,1.07-2,1.1-1.69.1,1.28,0,2.57,0,3.74l1.6,1.6H369V294l-2.32-2.83H362V295c-.33-.26-.92-.49-1-.78-.15-1.4-.16-2.83-.21-4.07H355.2V304c2.74-.15,5.3.21,7.8-.21V300c2.14.65.4,2.47,1,3.36C364.69,304.77,366.79,302.95,367,305Zm2.26-35h.45v-3.92h-.45c0,1.31,0,2.61,2.63,1.2l-.77-.24a11.22,11.22,0,0,1-.16,2.22c-.13.5-.61.91-1.3,1.88l2.23-.37C371.89,269.44,371.89,268.36,369.26,270Zm.91,5.84.86-.07-.24-3.62-.62,0Z" transform="translate(-4 -10.84)"/>
	<path class="cls-1" d="M182.75,334.83c.65,2.21-.43,4,1.08,5.65.51.55.16,1.9.16,2.89,0,5.5-.07,11,0,16.49a52.38,52.38,0,0,0,.83,6.13h20.89l.34,1.77H181V343.44c1.8-3.54.61-7.37,1.12-11.24H203.9v2.63Z" transform="translate(-4 -10.84)"/>
	<path class="cls-1" d="M185,200.1h1.85v23.67H151c.14-7.16-.57-14.33,1.43-21.62l1-.22c.21.32.53.58.53.84,0,6,0,11.94,0,18.32a12.82,12.82,0,0,0,3.14.86c8.81.07,17.63,0,26.36,0l1.5-1.5Z" transform="translate(-4 -10.84)"/>
	<path class="cls-1" d="M151.48,135l-1.59,3.09v17.76l-1.7.12V133.11h34.59v24.61l-.43.45-1-3c0-4.1,0-9.54,0-15,0-.22.45-.44.52-.51L180,134.93c-4.4.53-8.64-.51-13,.88a11.09,11.09,0,0,1-7.59-.61C157.1,134.23,154.12,135,151.48,135Z" transform="translate(-4 -10.84)"/>
	<path class="cls-1" d="M319.83,387.67l3.26,1.11h-5V377.21h-14.2V389c-1.1-1.87-.82-3.82-.87-5.73s0-4,0-6.09H290c0,1.91,0,4,0,6.1s0,4.28,0,6.69a17.79,17.79,0,0,0-2.14-.94,21.42,21.42,0,0,0-2.82-.3l2.79-.94V375.7a4.68,4.68,0,0,1,.52-.53.83.83,0,0,1,.43-.16h31.05Z" transform="translate(-4 -10.84)"/>
	<path class="cls-1" d="M185.11,492.4c-10.54.53-21.63.53-32.91.53v-17.8h34.74c.12,2.6,0,5.37.05,8.12s0,5.6,0,7.05a12.59,12.59,0,0,0-1.89,2.09,122.61,122.61,0,0,0,.73-16.18H153.12v15.66C164.16,491.87,175.08,491.87,185.11,492.4Z" transform="translate(-4 -10.84)"/>
	<path class="cls-1" d="M275.1,404.83v14h11.77l.17,3c-4.31-1.82-8.57-.23-13.18-1.16a10.16,10.16,0,0,1-.8-2.78c-.09-4.82,0-9.64,0-14.81h12.62l1.09-3.11.33,4.83Z" transform="translate(-4 -10.84)"/>
	<path class="cls-1" d="M339.61,426.93a76.23,76.23,0,0,1-.52-10.79h4.67V403.27l-2.23-.8,2.43-.71V382.12c1.3,4.1,1.62,52.6.76,64.65-.12,0-.27.13-.35.09s-.34-.22-.34-.34c0-6,0-12,0-18a28.24,28.24,0,0,1-4.41-1.61c1.66-.09,2.94-.09,4.18-.09v-9.72h-3.66A61.22,61.22,0,0,1,339.61,426.93Z" transform="translate(-4 -10.84)"/>
	<path class="cls-1" d="M80.08,145.23v5.71c1.65-5,2.14-5.35,6.7-5.92v9.83H84.16l-.29-3.71H80.1v3.74h-3v-5.62L74,148.73C75.41,145.77,76.17,145.33,80.08,145.23ZM84,149.67v-.33H83v.33Z" transform="translate(-4 -10.84)"/>
	<path class="cls-1" d="M111,134.84c-1.6.05-3.2.15-4.8.15q-26.4,0-52.81,0c-1.79,0-3.58.31-5.4.48v-.94C51.72,133.8,105.75,133.75,111,134.84Z" transform="translate(-4 -10.84)"/>
	<path class="cls-1" d="M83.93,244c-.1.95.72,2.72-1.67,3.92H78l-2-4.75,1.93-5h4.81l1.45,2c-1.53,1.81-2.68.46-3.9,0l-1.39,1.49C80.56,242.5,82.88,241.1,83.93,244Zm-1.79,2-.38-2-2.9.23.33,1.73Z" transform="translate(-4 -10.84)"/>
	<path class="cls-1" d="M60.5,99h-3L55,96.46V91.39l2.81-2.3H60.6C63.88,93.57,63.87,94.61,60.5,99Zm-2-8c-.35,2-.79,4-.18,6.11l1.55-.31C60,92.69,60,92.69,58.48,91Z" transform="translate(-4 -10.84)"/>
	<path class="cls-1" d="M163.88,238.44c2.22-1.36,2.22-1.4,4.53-1.44l2.86,2.69-1.3,2.15c.75,1.68,2.1,3.44-.52,5.06h-4.18C162.8,244.43,164.58,241.28,163.88,238.44Zm3.85,7.47v-3l-2.12.43Zm0-4v-3l-2.12.43Z" transform="translate(-4 -10.84)"/>
	<path class="cls-1" d="M329,268.5,326.51,271h-3.09l-1.63-2c.4-.5.62-1,.78-.94,1.13.12,2.25.35,3.38.54l.07-1.38c-2.26.2-3.79-1.1-5.22-3.13L323.4,261h3.25l1.75,3.11.6-.59ZM325.91,263c-2.23-.09-2.25.74-1.47,2.06l1.47-.28Z" transform="translate(-4 -10.84)"/>
	<path class="cls-1" d="M371.2,423.1h5.62l.25,1.81h-4c.24.6.35,1,.42,1a3.27,3.27,0,0,1,3.49,1.59c-.14,1.72.82,3.82-1.4,5.36h-4.34l-1.93-3.15,4.5,1.38.26-2.85-4.21,1Z" transform="translate(-4 -10.84)"/>
	<path class="cls-1" d="M305.86,434.55c.13,2.57.17,4.35.34,6.11,0,.39.57.72,1,1.28a11,11,0,0,0-1.12,1.48,5.67,5.67,0,0,0-.31,1.46h-2.49l-.64-1.79-3.43-.16c-.08-.47-.37-1-.21-1.36C300.42,438.64,301.6,435.47,305.86,434.55Z" transform="translate(-4 -10.84)"/>
	<path class="cls-1" d="M335.11,114.87c-1.06,0-2,0-3.43,0l1.44-2.7h3.51c.17.17.54.37.62.65.73,2.53,1.41,5.08,2.17,7.86l-5.69,1.69-3.41-3.87,2.95-.52,2.58,3,.19-3.43-2-1a9.72,9.72,0,0,0,1.08-1.7c-.15.1-.09.17,0,.23l.82-.7-.32-.32A1.72,1.72,0,0,0,335.11,114.87Z" transform="translate(-4 -10.84)"/>
	<path class="cls-1" d="M148.85,330.49l1.29-2.37h4.52l1.54,8.58-5.5,1.63-3.38-3.94,2.82-.4,2.68,2.76v-3.38l-2-.94,2.18-.76-.21-2-3.19,1.46Z" transform="translate(-4 -10.84)"/>
	<path class="cls-1" d="M106.41,309.4l-2-.45-.79,1.95h-2.82l1.51-3.87h4c2.32,1,1.61,2.92,1.72,4.64l-4.67,3.1,5.46.36.31,1.73a40.32,40.32,0,0,1-8.45-.11C101.85,313.67,104.76,312.52,106.41,309.4Z" transform="translate(-4 -10.84)"/>
	<path class="cls-1" d="M327.06,337.83l-14.91-9.47v-2.44c5.08,3.17,10.47,5.34,14.63,9.42C327,335.58,326.91,336.21,327.06,337.83Z" transform="translate(-4 -10.84)"/>
	<path class="cls-1" d="M52.94,88.91v9.9H50.19l-.3-5.61-3-.44C47.69,89.62,50,89.18,52.94,88.91Z" transform="translate(-4 -10.84)"/>
	<path class="cls-1" d="M266.06,164.38v-2.52l13,7.6-.2,3.16Z" transform="translate(-4 -10.84)"/>
	<path class="cls-1" d="M339,384.15v16.68c-1.35-2.89-.91-5.88-1-8.82s0-5.89,0-8.92h2.83v18.72c-1.19-2.87-.74-5.86-.82-8.8s0-5.89,0-8.84Z" transform="translate(-4 -10.84)"/>
	<path class="cls-1" d="M326.15,116.24l-3.27-.55c1.61-2.92,2.49-3.41,6-3.43v9.59l-2.73.19Z" transform="translate(-4 -10.84)"/>
	<path class="cls-1" d="M387,265c-.26.33-.5.94-.78,1-1.62.09-3.26,0-5.05,0v5.82c1.22.05,2.64.06,4,.22.29,0,.52.62.78,1-.76.15-1.91-.5-2,1.4,0,.1,0-.21,0-.51l-2.95.39.06.67a7.46,7.46,0,0,0,2.91-.54c1.86,0,.83,1.3.81,2.44h-4.58V262.43l1.07,2.57Z" transform="translate(-4 -10.84)"/>
	<path class="cls-1" d="M151.82,108.9h-2.71v-6.64l-3.4,1c1-3.66,3.39-4,6.1-4.3Z" transform="translate(-4 -10.84)"/>
	<path class="cls-1" d="M157,106c0-1,0-2,0-3.39a3.94,3.94,0,0,1,0,.48l2-.38-.09-.65a3.53,3.53,0,0,0-1.9.55,7,7,0,0,1-2.78.39c-.64-2.29,1.46-2.58,2.09-3.89h4.3l1.59,3.27C160.37,103.38,159.87,106.17,157,106Z" transform="translate(-4 -10.84)"/>
	<path class="cls-1" d="M78.33,203.9H73.15L73,202.2h8.13c-2.61,3-2.72,7-5.15,10.23C74.51,208.77,74.64,208.32,78.33,203.9Z" transform="translate(-4 -10.84)"/>
	<path class="cls-1" d="M210,461.09h1.84V476.9h-2.52c1.14-2.59.59-5.29.67-7.92S210,463.77,210,461.09Z" transform="translate(-4 -10.84)"/>
	<path class="cls-1" d="M341,299v3.74h6V291.17c1.4,2,.89,4.2,1,6.3s0,4.23,0,6.66h-7v.75c1.91,0,3.82,0,5.72.15.45,0,.86.62,1.28,1h-7.78a22.39,22.39,0,0,1,0-6.65C340.2,299.21,340.72,299.12,341,299Z" transform="translate(-4 -10.84)"/>
	<path class="cls-1" d="M127.17,460.09h1.67v15.82h-1.67Z" transform="translate(-4 -10.84)"/>
	<path class="cls-1" d="M127.16,481.09h1.67v15.82h-1.67Z" transform="translate(-4 -10.84)"/>
	<path class="cls-1" d="M211.83,497.91h-1.66V482.09h1.66Z" transform="translate(-4 -10.84)"/>
	<path class="cls-1" d="M297.1,318.11l1.42-.93c3.33,2,7.36,3.38,10.19,7.43C305.91,324.56,299.34,320.58,297.1,318.11Z" transform="translate(-4 -10.84)"/>
	<path class="cls-1" d="M239,487.9h-1.88v-6.64l-3.24.93c.42-3.41,2.95-3.27,5.12-4.68V487.9Z" transform="translate(-4 -10.84)"/>
	<path class="cls-1" d="M338,344.82c-1.66-1.91-4.46-.71-4-3.78h-2.34c-.91-1.17-2.68-1.76-2.56-4.25,1.49.62,3.61,1,3.7,1.63.3,2.15,2,1.07,2.78,1.72C336.53,341,338.1,341.71,338,344.82Z" transform="translate(-4 -10.84)"/>
	<path class="cls-1" d="M99.75,226l1.5,6.92H96.2v-3.64l2.63-.41V226Z" transform="translate(-4 -10.84)"/>
	<path class="cls-1" d="M271.83,401.17v19.65c-1.22-3.21-.72-6.53-.81-9.8s0-6.56,0-9.84Z" transform="translate(-4 -10.84)"/>
	<path class="cls-1" d="M365,339l2,1.15a32.72,32.72,0,0,1,0-3.39c0-.28.62-.51,1-.76v15.48c-1.56-1.73-.84-3.16-1-4.39a43.41,43.41,0,0,1,0-4.46C366.3,341.44,364.48,340.87,365,339Z" transform="translate(-4 -10.84)"/>
	<path class="cls-1" d="M89,257c-.76,1.79-1.88,1-3,.5-.39-.16-.95.08-1.61.15l-1.57-3.13,1.49-1.19c.75.08,1.3.32,1.69.16,1.16-.48,2.29-1.29,3,.5H86.93l.26,3Z" transform="translate(-4 -10.84)"/>
	<path class="cls-1" d="M162,107.38l-.07,1.39h-8.17l1.4-2.7Z" transform="translate(-4 -10.84)"/>
	<path class="cls-1" d="M355,277h11.45c1.58-.92-.76-3.36,1.55-4v5c-4.13,0-7.92,0-11.72,0C355.85,277.95,355.43,277.33,355,277Z" transform="translate(-4 -10.84)"/>
	<path class="cls-1" d="M348,306c4.75,0,9.5,0,14.25,0,.72,0,1.74-.35,1.75,1-4.75,0-9.5,0-14.25,0C349,307,348,307.34,348,306Z" transform="translate(-4 -10.84)"/>
	<path class="cls-1" d="M350.62,350.84c3.25.58,5.35,1.94,6.22,4.8C353.92,355.27,351.6,354.17,350.62,350.84Z" transform="translate(-4 -10.84)"/>
	<path class="cls-1" d="M369,321v15h-1c0-4.42,0-8.84,0-13.25C368,322,367.66,321,369,321Z" transform="translate(-4 -10.84)"/>
	<path class="cls-1" d="M369.77,289.19h4.11l.06.53-2.85.47V298C367.25,295.16,371.18,292.07,369.77,289.19Z" transform="translate(-4 -10.84)"/>
	<path class="cls-1" d="M273.15,422.17h11.63c0,.25.09.39,0,.47s-.22.34-.34.34c-3.77,0-7.54,0-11.3,0Z" transform="translate(-4 -10.84)"/>
	<path class="cls-1" d="M305.2,390.18h11.65C313,391.36,309.06,390.8,305.2,390.18Z" transform="translate(-4 -10.84)"/>
	<path class="cls-1" d="M70,255v-2.85l.63-.1.53,1.5,4.75-.67v2.23L74,253.73,72,256Z" transform="translate(-4 -10.84)"/>
	<path class="cls-1" d="M340,343.54l3.89,1.86v2.2C342.67,348.72,341,347.1,340,343.54Z" transform="translate(-4 -10.84)"/>
	<path class="cls-1" d="M342.8,448.82h-9.65C336.35,447.62,339.61,448.21,342.8,448.82Z" transform="translate(-4 -10.84)"/>
	<path class="cls-1" d="M364,262h4v2c-.76.15-1.91-.5-2,1h-3.95l2.83-1.43Z" transform="translate(-4 -10.84)"/>
	<path class="cls-1" d="M382.51,282h1.33a22.72,22.72,0,0,1-.53,8Z" transform="translate(-4 -10.84)"/>
	<path class="cls-1" d="M67,254l3,1-.93,3C66.67,257.18,67,255.52,67,254Z" transform="translate(-4 -10.84)"/>
	<path class="cls-1" d="M290,215.22l2.91-1.11.13,2.62C291,217.46,290.58,216.11,290,215.22Z" transform="translate(-4 -10.84)"/>
	<path class="cls-1" d="M71.94,255.86l2.15,1.26L75.72,256l.44,1.75-4,.26Z" transform="translate(-4 -10.84)"/>
	<path class="cls-1" d="M89,254h1.81l.26,3H89Z" transform="translate(-4 -10.84)"/>
	<path class="cls-1" d="M382,289.26v1.55l-2.76.24-.36-1.79Z" transform="translate(-4 -10.84)"/>
	<path class="cls-1" d="M331.91,227l-2.39,3.11a12,12,0,0,0-1-2.07c-.61-.79-.37-1,.48-1C329.59,227,330.19,227,331.91,227Z" transform="translate(-4 -10.84)"/>
	<path class="cls-1" d="M380.17,286.07l-3.64-.26,1.83-3Z" transform="translate(-4 -10.84)"/>
	<path class="cls-1" d="M146,166h-6A4.77,4.77,0,0,1,146,166Z" transform="translate(-4 -10.84)"/>
	<path class="cls-1" d="M145,192l5-1-1.31,2C147.44,192.51,145.77,194.12,145,192Z" transform="translate(-4 -10.84)"/>
	<path class="cls-1" d="M362,295c.33.4.91.77,1,1.2a37.32,37.32,0,0,1,0,3.8c-.33-.4-.91-.77-1-1.2A37.31,37.31,0,0,1,362,295Z" transform="translate(-4 -10.84)"/>
	<path class="cls-1" d="M379.11,281.72v-3.49l2.23-.37c-.69,1-1.17,1.38-1.3,1.88a11.22,11.22,0,0,0-.16,2.22Z" transform="translate(-4 -10.84)"/>
	<path class="cls-1" d="M307.5,195.29l-3.38,1.65v-2.62Z" transform="translate(-4 -10.84)"/>
	<path class="cls-1" d="M298.08,220.53l-4-2.34h3.77Z" transform="translate(-4 -10.84)"/>
	<path class="cls-1" d="M287.08,213.53l-4-2.34h3.77Z" transform="translate(-4 -10.84)"/>
	<path class="cls-1" d="M214,325v5A3.44,3.44,0,0,1,214,325Z" transform="translate(-4 -10.84)"/>
	<path class="cls-1" d="M374.09,251.17l-.46,2.31-3.12-2.31Z" transform="translate(-4 -10.84)"/>
	<path class="cls-1" d="M138,168v5A3.44,3.44,0,0,1,138,168Z" transform="translate(-4 -10.84)"/>
	<path class="cls-1" d="M305.59,225.12h3.55l-.73,2.48Z" transform="translate(-4 -10.84)"/>
	<path class="cls-1" d="M316.59,232.12h3.55l-.73,2.48Z" transform="translate(-4 -10.84)"/>
	<path class="cls-1" d="M50.29,140a14.91,14.91,0,0,1,.69,2.25,3.64,3.64,0,0,1-.69,2.71Z" transform="translate(-4 -10.84)"/>
	<path class="cls-1" d="M51.71,151a14.91,14.91,0,0,1-.69-2.25,3.64,3.64,0,0,1,.69-2.71Z" transform="translate(-4 -10.84)"/>
	<path class="cls-1" d="M52.74,150v3.91l-.45,0V150Z" transform="translate(-4 -10.84)"/>
	<path class="cls-1" d="M290.53,202.84l2.68,1.54C291.41,205.86,290.89,204.15,290.53,202.84Z" transform="translate(-4 -10.84)"/>
	<path class="cls-1" d="M379,382.74v-1.45l1.75-.37.37,1.82Z" transform="translate(-4 -10.84)"/>
	<path class="cls-1" d="M142,190l3,2h-3Z" transform="translate(-4 -10.84)"/>
	<path class="cls-1" d="M302.31,222.19l1.36-1.36.39,2.94-.7.37Z" transform="translate(-4 -10.84)"/>
	<path class="cls-2" transform="translate(-4 -10.84)"/>
	<line class="cls-1" x1="376" y1="525.35" x2="83" y2="336.15"/>
</svg>