<svg id="Capa_2" data-name="Capa 2" xmlns="http://www.w3.org/2000/svg" viewBox="0 0 1097.8 1149.63"><defs><style>.cls-1{fill:none;stroke:#1d1d1b;stroke-miterlimit:10;}</style></defs><title>Bellanca nivel 14 eps</title><polygon class="cls-1" points="2.42 996.05 2.42 501.17 100.97 501.17 100.97 642.65 308.58 642.65 308.58 536.21 598.7 536.21 598.7 996.67 2.42 996.05"/><polygon class="cls-1" points="1095.1 996.31 598.7 996.31 598.7 536.21 933.5 536.21 933.5 500.57 1094.66 500.57 1095.1 996.31"/><polygon class="cls-1" points="729.14 464.81 729.14 4.32 1094.66 4.32 1094.66 500.57 933.5 500.57 933.5 464.81 729.14 464.81"/><polygon class="cls-1" points="307.22 464.81 307.22 281.93 396.62 281.57 396.62 3.89 729.14 4.32 729.14 464.81 307.22 464.81"/><polygon class="cls-1" points="0.5 1146.13 1097.3 1149.13 1097.3 0.5 0.5 0.5 0.5 1146.13"/></svg>