<svg id="Capa_2" data-name="Capa 2" xmlns="http://www.w3.org/2000/svg" viewBox="0 0 562.44 618.19">
	<defs>
		<style>
			.land{fill:none;stroke:#000;stroke-miterlimit:10;}
		</style>
	</defs>
	<title>BELLANCA_N10</title>
	<g>
		<rect  class='land' x="0.5" y="0.5" width="561.44" height="617.19"/>
		<path  class="land" id="BN10-01" d="M197.25,90.12H343.66V320.76l-214.08-.24V299.64h14.74c0-1.08-.5-8.95-7.06-13.68a17,17,0,0,0-9.36-3.12,17.64,17.64,0,0,0,10.84-4.55,17.91,17.91,0,0,0,5.58-12.49h-15.7V245.16h51.84V104.28h16.8Z" transform="translate(-22.5 -86.98)"/>
		<path  class="land" id="BN10-02" d="M363.09,90.12H503.73V105h16.8V90.12h8.4V338.76l-131.59,0v-18H384.21V306.12a16.81,16.81,0,0,0-16.8,16.32A19.07,19.07,0,0,0,350.85,305l.24,15.76h-4.83l0-54h16.8V250h-16.8V104.28h16.8Z" transform="translate(-22.5 -86.98)"/>
		<path  class="land" id="BN10-03" d="M396.69,341.4H528.93V591.72h-8.4V575.88h-16.8v15.84H363.09V575.88h-16.8v15.84h-8.4V359.64h11.76l-.24,14.64A16.69,16.69,0,0,0,366,358.2a16,16,0,0,0,16.32,16.08V359.64h14.4Z" transform="translate(-22.5 -86.98)"/>
		<path  class="land" id="BN10-04" d="M129.57,359.4l205.43.24.49,232.08H197.25V575l-16.8.13v15.75H43.17V575H28.77V430.2h14.4V413.4l86.4-.24v-10.8l14.79-.12c0-1-.35-9.1-7.11-13.8a16.67,16.67,0,0,0-9.84-2.88A17.11,17.11,0,0,0,144,368.76h-14.4Z" transform="translate(-22.5 -86.98)"/>
		<rect  class="land" id="BN10-05" x="509.5" y="1.15" width="49.5" height="250.64"/>
		<polygon  class="land" id="BN10-06" points="508.83 254.42 559 254.42 559 504.74 509.5 504.74 508.83 254.42"/>
	</g>
</svg>