<?xml version="1.0" encoding="utf-8"?>
<!-- Generator: Adobe Illustrator 21.1.0, SVG Export Plug-In . SVG Version: 6.00 Build 0)  -->
<svg version="1.1" id="Capa_2" xmlns="http://www.w3.org/2000/svg" xmlns:xlink="http://www.w3.org/1999/xlink" x="0px" y="0px"
	 viewBox="0 0 612 792" style="enable-background:new 0 0 612 792;" xml:space="preserve">
<style type="text/css">
	.st0{fill:none;stroke:#000000;stroke-width:0.48;stroke-linecap:round;stroke-linejoin:round;stroke-miterlimit:10;}
</style>
<polygon class="st0" points="71,27.5 540.6,26.5 540.6,766.7 71,766.7 "/>
<polygon class="st0" points="538.5,206 435.3,206 435.3,289 539,288.8 "/>
<polygon class="st0" points="539,288.8 435.3,288.8 435.3,373.8 485.4,373.8 485.4,426 539,426 "/>
<polygon class="st0" points="539,426 539,557.8 436.2,557.8 436.2,478.2 484.6,478.2 484.6,426 "/>
<rect x="436.2" y="557.8" class="st0" width="102.7" height="83"/>
<polygon class="st0" points="262,641 262,558.7 159.3,558.7 159.3,640.9 "/>
<rect x="159.3" y="476.4" class="st0" width="102.7" height="82.3"/>
<rect x="159.5" y="289.9" class="st0" width="103" height="92.6"/>
<rect x="159.5" y="206.4" class="st0" width="103" height="83.5"/>
</svg>
