<svg id="Capa_2" data-name="Capa 2" xmlns="http://www.w3.org/2000/svg" viewBox="0 0 470.1 740.67"><defs><style>.cls-1{fill:none;stroke:#000;stroke-linecap:round;stroke-linejoin:round;stroke-width:0.48px;}</style></defs><title>ESTACIONAMIENTO PB1-Model</title><polygon class="cls-1" points="0.24 1.24 469.87 0.24 469.87 740.43 0.24 740.43 0.24 1.24"/><polygon class="cls-1" points="467.72 179.76 364.52 179.74 364.52 262.8 468.19 262.51 467.72 179.76"/><polygon class="cls-1" points="468.19 262.51 364.52 262.51 364.52 347.52 414.68 347.52 414.68 399.73 468.19 399.73 468.19 262.51"/><polygon class="cls-1" points="468.19 399.73 468.19 531.6 365.48 531.6 365.48 451.92 413.84 451.92 413.84 399.73 468.19 399.73"/><rect class="cls-1" x="365.48" y="531.6" width="102.71" height="83.04"/><polygon class="cls-1" points="191.24 614.76 191.24 532.44 88.57 532.44 88.57 614.64 191.24 614.76"/><rect class="cls-1" x="88.57" y="450.12" width="102.67" height="82.32"/><rect class="cls-1" x="88.76" y="263.64" width="102.96" height="92.64"/><rect class="cls-1" x="88.76" y="180.12" width="102.96" height="83.52"/></svg>