<svg id="Capa_2" data-name="Capa 2" xmlns="http://www.w3.org/2000/svg" viewBox="0 0 531.03 719.26"><defs><style>.cls-1{fill:none;stroke:#000;stroke-linecap:round;stroke-linejoin:round;stroke-width:0.48px;}</style></defs><title>PLANTAS N12 EPS-Model</title><polygon class="cls-1" points="529.11 3.27 529.11 266.66 392.37 266.66 392.37 248.31 330.99 248.31 330.99 3.27 529.11 3.27"/><polygon class="cls-1" points="529.28 268.59 529.28 585.07 328.59 585.07 328.59 287.51 346.99 287.51 390.33 287.34 390.33 268.28 529.28 268.59"/><path class="cls-1" d="M42.11,620s325.8,0,325.8,0L367,322.56H152.47v56.9H41.38Z" transform="translate(-39.76 -35.09)"/><polygon class="cls-1" points="160.95 4.78 160.95 166.83 112.61 166.83 112.61 249.16 328.59 249.16 328.59 4.78 160.95 4.78"/><rect class="cls-1" x="0.24" y="0.24" width="530.55" height="718.78"/></svg>