<svg id="Capa_2" data-name="Capa 2" xmlns="http://www.w3.org/2000/svg" viewBox="0 0 1097.28 1150.36"><defs><style>.cls-1,.cls-2{fill:none;stroke:#000;stroke-miterlimit:10;}.cls-1{stroke-width:0.48px;}.cls-2{stroke-width:1.5px;}</style></defs><title>Bellanca nivel 8 eps</title><polygon class="cls-1" points="0.24 1149.4 0.24 0.24 1097.04 0.24 1097.04 1150.12 0.24 1149.4"/><polygon class="cls-2" points="498.72 542.68 498.72 1002.62 1094.65 1002.62 1094.65 506.44 833.64 506.44 833.64 539.8 498.72 542.68"/><polygon class="cls-2" points="498.72 542.68 207.12 542.68 207.12 648.64 1.4 648.64 1.4 1003 498.72 1003 498.72 542.68"/><polygon class="cls-2" points="207.36 470.8 629.16 470.8 629.16 10.41 296.76 10.41 296.76 315.64 207.36 315.64 207.36 470.8"/><polygon class="cls-2" points="629.16 470.8 833.64 470.8 833.64 506.44 1094.65 506.44 1094.65 9.88 629.16 9.88 629.16 470.8"/></svg>