<svg id="Capa_2" data-name="Capa 2" xmlns="http://www.w3.org/2000/svg" viewBox="0 0 539.33 728.13"><defs><style>.cls-1{fill:none;stroke:#000;stroke-miterlimit:10;}</style></defs><title>PLANTAS N18-Model</title><polygon class="cls-1" points="537.38 2.44 537.38 270.15 396.39 270.15 396.39 250.83 269.91 250.83 269.91 2.19 537.38 2.44"/><polygon class="cls-1" points="537.42 592.54 269.91 592.54 269.91 289.24 396.39 289.24 396.39 270.88 537.38 270.88 537.42 592.54"/><polygon class="cls-1" points="1 592.29 1 346.19 115.04 346.19 115.04 289.33 269.82 289.33 269.82 592.29 1 592.29"/><polygon class="cls-1" points="160.63 2.42 160.63 166.92 114.39 166.92 114.39 250.59 269.8 250.59 269.8 2.42 160.63 2.42"/><rect class="cls-1" x="0.5" y="0.5" width="538.33" height="727.13"/></svg>