<svg id="Capa_2" data-name="Capa 2" xmlns="http://www.w3.org/2000/svg" viewBox="0 0 547.48 648.61">
	<defs>
		<style>
			.land{fill:none;stroke:#000;stroke-miterlimit:10;}
		</style>
	</defs>
	<title>BELLANCA_N17</title>
	<g>
		<polygon class="land" points="0.5 648.11 546.98 647.65 546.98 0.5 0.5 0.5 0.5 648.11"/>
		<path id="BN17-01" class="land" d="M2.64,2.64h269V307H198V295.09a13.9,13.9,0,0,0-13.68,13.79,15.13,15.13,0,0,0-4.89-10.36,14.89,14.89,0,0,0-9-3.68v11.5l-53.76.08.13-58.29-98.94.25H2.64v-1.66H14.4V231.89H3L2.89,69.51l11.51.06V54.48H2.89Z" transform="translate(0.5 0.5)"/>
		<path id="BN17-02" class="land" d="M274.56,2.64h269v323.7H403.39l-.08-19.83-19.55.08V295a14.45,14.45,0,0,0-13.68,13.87,14.88,14.88,0,0,0-3.12-8.64,15.37,15.37,0,0,0-10.68-5.56v12H274.83Z" transform="translate(0.5 0.5)"/>
		<path id="BN17-03" class="land" d="M403,329.52H543.6V597.64H533.39V585.8h-16v11.83H362.16V586.56h-14.4v11.07h-73.2V348.72l81.84.37v12A15.3,15.3,0,0,0,370,347.67a0,0,0,0,1,.09,0,14.75,14.75,0,0,0,3.92,8.22,14.93,14.93,0,0,0,9.83,4.46l.12-11,19-.08Z" transform="translate(0.5 0.5)"/>
		<path id="BN17-04" class="land" d="M116.4,349.09h54v11.25a14.28,14.28,0,0,0,13.92-13.54,14.74,14.74,0,0,0,3.12,8.4A15.25,15.25,0,0,0,198,360.68v-12h73.31l.37,248.91H183.12V586H167.89v11.63l-153.12.19V586.14H3V424H14.4V408.68L3,408.59V407H116.4Z" transform="translate(0.5 0.5)"/>
	</g>
</svg>