<svg id="Capa_2" data-name="Capa 2" xmlns="http://www.w3.org/2000/svg" viewBox="0 0 547.48 648.17">
	<defs>
		<style>
			.land{fill:none;stroke:#000;stroke-miterlimit:10;}
		</style>
	</defs>
	<title>BELLANCA_N17</title>
	<g>
		<polygon class="land" points="0.5 647.67 546.98 647.67 545.3 0.5 3.14 2.7 0.5 647.67"/>
		<path id="BN17-01" class="land" d="M3.39,3.51H271.31l.37,302.68-73.92-.34V294.66c-1.42.23-5.78.14-9.29,3.65-3.79,3.79-4,9.14-4.15,10.51a11.23,11.23,0,0,0-3.05-9.47,16.06,16.06,0,0,0-10-4.66c0,3.84.06,6.95.06,10.79H117.14l-.24-57.25L3.14,247.56v-1.62H14.45l.21-14.15-11.15-.22L2.88,69.68l11.88.08.07-15L3.13,54.48Z" transform="translate(0.5 -0.94)"/>
		<path id="BN17-02" class="land" d="M274.56,3.84l269-1.2-.38,323.79-139.83,1,.08-20H384.55L384.46,296c-1.36.16-6.8.7-10.24,3.86-4,3.67-3.57,9.28-3.72,10.52,0-.73,0-6.91-5.06-10.8a17.87,17.87,0,0,0-8.8-3.64c0,3.65.37,8.3.37,11.94H274.56Z" transform="translate(0.5 -0.94)"/>
		<path id="BN17-03" class="land" d="M403.47,329.52,543.6,330l-.3,269.19-10.5.06V585.93l-15,.17L517.7,599,362.16,599V586.56H347.27l0,13-72.88-.43.48-249.83h81.81V360c1-.07,5.74.9,9.7-4.1a16.62,16.62,0,0,0,3.74-8.1,15.34,15.34,0,0,0,3.2,8.18c3.91,4.94,9.35,3.91,10.48,4,0-4,.24-6.58.24-10.57h19.64Z" transform="translate(0.5 -0.94)"/>
		<path id="BN17-04" class="land" d="M197.52,349.26l73.68.06L270.72,598l-87.92.31-.24-12.71H167.68v12.71H14.7v-12l-11.93-.16-.2-162.51,11.83,0V409H3.08v-2.58l113.86.66-.25-57.79,53.41-.17.17,11.45a12.31,12.31,0,0,0,9.72-3.24,13.57,13.57,0,0,0,4-9.51,13.94,13.94,0,0,0,3.11,8.37c3.92,4.75,9.65,4.11,10.54,4.13C197.65,356.48,197.52,353.08,197.52,349.26Z" transform="translate(0.5 -0.94)"/>
	</g>
</svg>