<svg id="Capa_2" data-name="Capa 2" xmlns="http://www.w3.org/2000/svg" viewBox="0 0 466.36 728.68">
	<defs>
		<style>
			.land{fill:none;stroke:#000;stroke-miterlimit:10;}
		</style>
	</defs>
	<title>BELLANCA_N2</title>
	<g>
		<rect class="land" x="0.5" y="0.5" width="465.36" height="727.68"/>
		<path id="BN2-01" class="land" d="M372.92,98h84.24v13.2h11.76v87.47H456.5V211H372.92V199.28H361.16V171h5.51l-6.95-6.48a7.21,7.21,0,0,0,6.48-6.72h-4.56V111.2h11.28Z" transform="translate(-4.74 -4.86)"/>
		<path id="BN2-02" class="land" d="M361.64,213l107.28-.24v82.56H457.16v27.84H372.92V295.28H361.16V268.4h5.59a8.35,8.35,0,0,0-2.76-5.06,8,8,0,0,0-3.29-1.66,8.89,8.89,0,0,0,6-6.1l-5.06-.62Z" transform="translate(-4.74 -4.86)"/>
		<path id="BN2-03" class="land" d="M361.64,325l106.94-.08-.08,82-106.86-.38V371.36h5.11a9.11,9.11,0,0,0-2.46-4.7,8.94,8.94,0,0,0-3.13-2,10.52,10.52,0,0,0,3.63-2.62,8.34,8.34,0,0,0,2-4.1h-5.17Z" transform="translate(-4.74 -4.86)"/>
		<path id="BN2-04" class="land" d="M371.06,408.56h89.88v8.13h7.65l0,93.15-107-.4V464.69l5.07,0-6-6.95a8.36,8.36,0,0,0,6-6.72h-5.25l.18-34.58h9.44Z" transform="translate(-4.74 -4.86)"/>
		<path id="BN2-05" class="land" d="M371.19,511.63l89.75-.06v7.81h7.69v93.38h-7.87l.06,7.69H371.19v-7.81l-9.55.13V565.52h5a9.84,9.84,0,0,0-5.53-7,7.47,7.47,0,0,0,5.34-6.48h-4.86V519.25l9.55-.29Z" transform="translate(-4.74 -4.86)"/>
		<polygon id="BN2-06" class="land" points="262.07 543.58 328.01 543.23 328.01 564.39 262.07 564.39 262.07 543.58"/>
		<polygon id="BN2-07" class="land" points="257.59 532.89 292.43 532.89 292.43 412.82 257.18 412.82 257.18 504.64 266.9 504.56 266.9 514.1 257.51 514.1 257.59 532.89"/>
		<polygon id="BN2-08" class="land" points="269.09 303.14 328.13 302.89 328.18 381.81 261.97 381.6 261.97 320.1 269.13 320.1 269.09 303.14"/>
		<polygon id="BN3-09" class="land" points="268.97 290.14 268.97 301.89 328.18 301.81 328.18 230.85 262.01 230.85 262.01 290.1 268.97 290.14"/>
		<polygon id="BN2-10" class="land" points="262.18 158.97 328.09 158.97 328.18 229.81 262.18 229.81 262.18 208.31 268.68 208.31 268.68 193.89 262.18 193.89 262.18 158.97"/>
		<polygon id="BN2-11" class="land" points="262.18 157.64 328.18 157.64 328.09 69.97 262.18 69.97 262.18 92.64 268.68 92.64 268.68 106.72 262.51 106.72 262.18 157.64"/>
		<path id="BN2-12" class="land" d="M143.67,421H229.4v68.64h-5.28a8.83,8.83,0,0,0,1.44,3.6,8.92,8.92,0,0,0,3.84,3.12,9.36,9.36,0,0,0-5.65,6.72h5.08l-.08,86.8-85.08-67.6Z" transform="translate(-4.74 -4.86)"/>
		<path id="BN2-13" class="land" d="M143.33,418.83H229l3.64-19.21-5-.9a8.28,8.28,0,0,1,7-5.28,7.71,7.71,0,0,1-4.55-7.68l4.78,1.11,4-20.19v-11.6l-95.54-.29Z" transform="translate(-4.74 -4.86)"/>
		<path id="BN2-14" class="land" d="M143.33,352.75h95.54V321.08h-5.54a7.74,7.74,0,0,1,2.17-5.16,7.55,7.55,0,0,1,3.74-2A8,8,0,0,1,233.5,307h5.25V288.56l-95.42.36Z" transform="translate(-4.74 -4.86)"/>
		<path id="BN2-15" class="land" d="M143.33,286.88l95.5-.38V257.57h-5.25a8.63,8.63,0,0,1,2.33-5,8.44,8.44,0,0,1,3.32-2.09,11.88,11.88,0,0,1-5.68-7h5.38V222.32l-95.6.26Z" transform="translate(-4.74 -4.86)"/>
		<path id="BN2-16" class="land" d="M143.33,220.64l95.5-.39V193.76H233.5a8.24,8.24,0,0,1,2.52-4.63,8.08,8.08,0,0,1,3.46-1.85,8.7,8.7,0,0,1-3.42-2,8.93,8.93,0,0,1-2.56-5.12h5.19l.15-24-95.5.34Z" transform="translate(-4.74 -4.86)"/>
		<path id="BN2-17" class="land" d="M143.33,154.4l95.42-.4V126.32h-5.17a10,10,0,0,1,5-6.6,7.37,7.37,0,0,1-3.25-2.22,7.5,7.5,0,0,1-1.71-4.69h5.25l0-23.93h-95.5Z" transform="translate(-4.74 -4.86)"/>
		<path id="BN2-18" class="land" d="M143.33,87.08h95.91V68.72H234a7.31,7.31,0,0,1,2.2-5A7,7,0,0,1,239.33,62a10.91,10.91,0,0,1-5.65-6.72h5.25l0-8.64H271V19.42H259.88V7H175.67l.08,12.21H161.83V7.42h-18.5Z" transform="translate(-4.74 -4.86)"/>
	</g>
</svg>