<svg id="Capa_1" data-name="Capa 1" xmlns="http://www.w3.org/2000/svg" viewBox="0 0 452.44 703.48">
	<defs>
		<style>
			.land{fill:none;stroke:#000;stroke-miterlimit:10;}
		</style>
	</defs>
	<title>BELLANCA_N1</title>
	<g>
		<path class="land" id="BN1-01" d="M436,134.67h81.33v12.67h11.5v85H517.67v13.33h11.17v41.67H432l-38.67-38.17V241h8.5a10.06,10.06,0,0,0-9.75-10.33,10.47,10.47,0,0,0,7.83-4,9.8,9.8,0,0,0,1.83-5.58L393.5,221V209L423,179.92v-32.5h13.25Z" transform="translate(-79.46 -43.54)"/>
		<path class="land" id="BN1-02" d="M457.79,289.75l71-.25v36H517.42l.17,13h11.25v6.42h-7v7.17H457.92V331.5h8.58A10.09,10.09,0,0,0,456,321.33a9.84,9.84,0,0,0,8-3.17,9.42,9.42,0,0,0,2.17-6.33l-8.42-.17Z" transform="translate(-79.46 -43.54)"/>
		<path class="land" id="BN1-03" d="M457.75,353.75l71.08.25,0,79.25H457.75V402.56h8.69a11,11,0,0,0-2.62-6.56,11.14,11.14,0,0,0-7.5-3.69A10,10,0,0,0,464,389a9.67,9.67,0,0,0,2.25-6.06l-8.62-.06Z" transform="translate(-79.46 -43.54)"/>
		<path class="land" id="BN1-04" d="M413.42,435.17h11.25v7.08h9.67v-7.08l87,0v7.44h7.5l-.06,90.19h-7.69v9.56h7.75V547H413.42V500.81l8.71.13a9.83,9.83,0,0,0-2.12-6.31,10.29,10.29,0,0,0-8.06-3.54A9.74,9.74,0,0,0,422,481.38l-8.87-.12Z" transform="translate(-79.46 -43.54)"/>
		<path class="land" id="BN1-05" d="M433,548.81l95.88.13-.12,83.56h-7.62V640H434.44v-7.75H425V568.56h8.5a10.73,10.73,0,0,0-2.56-6.75,10.94,10.94,0,0,0-7.75-3.62,9.26,9.26,0,0,0,7.31-2.62A9.16,9.16,0,0,0,433,548.81Z" transform="translate(-79.46 -43.54)"/>
		<rect class="land" id="BN1-06" x="275.17" y="524.71" width="39.88" height="26.16"/>
		<path class="land" id="BN1-07" d="M326.44,587.94l11.38,20.63v24.19h-9.19v8.88L155.5,746.33,118.83,686,309.92,575A9.68,9.68,0,0,0,323,578.83a9.15,9.15,0,0,0-4.67,4.83,9.46,9.46,0,0,0,.83,8.17Z" transform="translate(-79.46 -43.54)"/>
		<path class="land" id="BN1-08" d="M308.5,555.17l7.75,14.25L117.75,684.13l-34.87-57.5L214.38,547l-.25-24.5h76.21l8.08,14.83-7.08,4.08a8.9,8.9,0,0,0,13.25,4,10.68,10.68,0,0,0-3.5,13.83Z" transform="translate(-79.46 -43.54)"/>
		<path class="land" id="BN1-09" d="M289.67,470.08l.17,50.5H213.92L214,399.75h75.83v49.92l-8.33.17a9.69,9.69,0,0,0,9.83,10.33,10.34,10.34,0,0,0-7.42,3.42,10.12,10.12,0,0,0-2.42,6.33Z" transform="translate(-79.46 -43.54)"/>
		<path class="land" id="BN1-10" d="M289.83,353.42l.17,44.75H213.92l.08-108.5h75.67l.33,44.42-8.75.08a10.27,10.27,0,0,0,2.5,6.33,10.43,10.43,0,0,0,7.17,3.42,9.43,9.43,0,0,0-6.17,2.17,9.72,9.72,0,0,0-3.25,7.42Z" transform="translate(-79.46 -43.54)"/>
		<path class="land" id="BN1-11" d="M349.38,228.63v21.75L312,287.75H213.92l.08-117.5H314l36.13,38.38-9.12,0a10.86,10.86,0,0,0,2.33,6,11.34,11.34,0,0,0,8.08,4,9.61,9.61,0,0,0-7,2.33,9.78,9.78,0,0,0-3.08,7.67Z" transform="translate(-79.46 -43.54)"/>
		<path class="land" id="BN1-12" d="M304.75,126.5l.08,41.83-90.92-.17V46.42h17.67l-.08,11.75L245.67,58V46.42l75.17.33V83.33H304.92v22.92l-8.75-.08a10.42,10.42,0,0,0,2.42,7,10.54,10.54,0,0,0,7.42,3.58,9.39,9.39,0,0,0-9.58,9.67Z" transform="translate(-79.46 -43.54)"/>
		<path class="land" id="BN1-13" d="M344.88,423.63l-.08,97H313.08l.25-150L345.88,403v1l-9.58-.12a11.05,11.05,0,0,0,10.29,10,9.79,9.79,0,0,0-10.21,9.54Z" transform="translate(-79.46 -43.54)"/>
		<path class="land" id="BN1-14" d="M313.08,344.75H434.5v23.88l-38.87,33.63H384.44l.06-9.19a10.64,10.64,0,0,0-9.94,10.69,12,12,0,0,0-9.94-11.12l-.19,9.5-17.85-.06-33.5-34.4Z" transform="translate(-79.46 -43.54)"/>
		<path class="land" id="BN1-15" d="M313.08,342.83H434.5v-4.5H423.17L423,325.42h11.17v-7.25l-38.42-32.75H381.08l0,8.15a10,10,0,0,1-7.44-3.37,9.77,9.77,0,0,1-2.25-6.37,9.61,9.61,0,0,1-9.81,10.06l-.17-8.5-14.15.06-34.23,34.5Z" transform="translate(-79.46 -43.54)"/>
		<polygon class="land" id="BN1-16" points="248.71 62.96 320.54 62.96 320.04 125.59 292.42 153.46 249.42 103.96 260.17 103.96 260.29 90.46 248.71 90.59 248.71 62.96"/>
		<polygon class="land" points="3.42 702.8 451.94 702.8 449.38 2.88 0.5 0.5 3.42 702.8"/>
		<path class="land" d="M690,433.25" transform="translate(-79.46 -43.54)"/>
	</g>
</svg>