<svg id="Capa_2" data-name="Capa 2" xmlns="http://www.w3.org/2000/svg" viewBox="0 0 440.46 730.26"><defs><style>.cls-1,.cls-2{fill:none;stroke:#000;}.cls-1{stroke-miterlimit:10;}.cls-2{stroke-linecap:round;stroke-linejoin:round;stroke-width:0.48px;}</style></defs><title>ESTACIONAMIENTO PB-Model</title><polygon class="cls-1" points="388.5 107.5 321.9 107.5 321.9 218.59 389.34 218.59 388.5 107.5"/><polyline class="cls-1" points="389.34 219.31 389.34 326.35 321.9 326.35 321.9 218.59 389.34 218.59"/><polyline class="cls-1" points="388.5 426.43 388.5 533.23 321.9 533.23 321.9 426.43 387.66 426.43"/><polygon class="cls-1" points="388.5 534.91 388.5 650.83 320.7 650.83 320.7 534.07 388.5 534.91"/><polygon class="cls-1" points="200.22 650.83 83.1 650.83 83.1 542.59 199.74 543.43 200.22 650.83"/><polygon class="cls-2" points="82.91 541.78 82.86 423.91 200.22 423.91 200.7 542.59 82.91 541.78"/><polygon class="cls-2" points="199.74 334.75 201.18 218.35 82.38 217.12 82.38 335.47 199.74 334.75"/><polygon class="cls-2" points="81.66 109.15 201.18 109.15 201.18 218.35 82.38 217.12 81.66 109.15"/><polygon class="cls-2" points="0.51 0.24 440.22 0.24 440.22 730.02 0.24 730.02 0.51 0.24"/></svg>